<svg width="1363" height="301" viewBox="0 0 1363 301" fill="none" xmlns="http://www.w3.org/2000/svg">
<rect width="1363" height="301" rx="15" fill="#F0F0F0"/>
<path d="M0 15C0 6.71573 6.71573 0 15 0H37V301H15C6.71573 301 0 294.284 0 286V15Z" fill="#FFC700"/>
<path d="M128.067 123.67V125.255C128.067 128.245 127.646 130.93 126.805 133.312C125.981 135.675 124.808 137.698 123.287 139.381C121.765 141.046 119.965 142.326 117.889 143.221C115.812 144.098 113.52 144.537 111.014 144.537C108.489 144.537 106.18 144.098 104.085 143.221C102.008 142.326 100.2 141.046 98.6602 139.381C97.1383 137.698 95.9567 135.675 95.1152 133.312C94.2917 130.93 93.8799 128.245 93.8799 125.255V123.67C93.8799 120.681 94.2917 117.995 95.1152 115.614C95.9567 113.233 97.1294 111.209 98.6333 109.544C100.155 107.861 101.954 106.581 104.031 105.704C106.126 104.809 108.436 104.361 110.96 104.361C113.466 104.361 115.758 104.809 117.835 105.704C119.93 106.581 121.738 107.861 123.26 109.544C124.782 111.209 125.963 113.233 126.805 115.614C127.646 117.995 128.067 120.681 128.067 123.67ZM118.506 125.255V123.617C118.506 121.683 118.336 119.982 117.996 118.514C117.674 117.028 117.19 115.784 116.546 114.781C115.901 113.779 115.105 113.027 114.156 112.525C113.225 112.006 112.16 111.747 110.96 111.747C109.707 111.747 108.615 112.006 107.684 112.525C106.753 113.027 105.974 113.779 105.347 114.781C104.721 115.784 104.246 117.028 103.924 118.514C103.619 119.982 103.467 121.683 103.467 123.617V125.255C103.467 127.171 103.619 128.871 103.924 130.357C104.246 131.826 104.721 133.07 105.347 134.09C105.992 135.111 106.779 135.881 107.71 136.4C108.659 136.919 109.76 137.179 111.014 137.179C112.213 137.179 113.278 136.919 114.209 136.4C115.14 135.881 115.919 135.111 116.546 134.09C117.19 133.07 117.674 131.826 117.996 130.357C118.336 128.871 118.506 127.171 118.506 125.255ZM141.414 121.146V144H132.364V114.942H140.85L141.414 121.146ZM140.34 128.478L138.218 128.531C138.218 126.311 138.487 124.333 139.024 122.596C139.561 120.842 140.322 119.356 141.307 118.138C142.291 116.921 143.464 115.999 144.825 115.372C146.203 114.728 147.734 114.405 149.417 114.405C150.76 114.405 151.986 114.602 153.096 114.996C154.224 115.39 155.191 116.026 155.997 116.903C156.82 117.78 157.447 118.944 157.876 120.394C158.324 121.826 158.548 123.599 158.548 125.711V144H149.444V125.685C149.444 124.521 149.283 123.635 148.96 123.026C148.638 122.399 148.173 121.97 147.564 121.737C146.955 121.504 146.212 121.388 145.335 121.388C144.404 121.388 143.616 121.567 142.972 121.925C142.327 122.283 141.808 122.784 141.414 123.429C141.038 124.055 140.761 124.798 140.582 125.658C140.42 126.517 140.34 127.457 140.34 128.478ZM184.786 104.898L191.983 121.871L199.207 104.898H209.358L196.79 129.955V144H187.203V129.955L174.607 104.898H184.786ZM208.902 129.767V129.203C208.902 127.072 209.206 125.112 209.815 123.321C210.424 121.513 211.319 119.946 212.5 118.622C213.682 117.297 215.141 116.267 216.878 115.533C218.615 114.781 220.62 114.405 222.894 114.405C225.185 114.405 227.199 114.781 228.936 115.533C230.691 116.267 232.159 117.297 233.34 118.622C234.522 119.946 235.417 121.513 236.026 123.321C236.635 125.112 236.939 127.072 236.939 129.203V129.767C236.939 131.879 236.635 133.84 236.026 135.648C235.417 137.438 234.522 139.005 233.34 140.348C232.159 141.673 230.7 142.702 228.963 143.436C227.226 144.17 225.221 144.537 222.947 144.537C220.674 144.537 218.659 144.17 216.905 143.436C215.15 142.702 213.682 141.673 212.5 140.348C211.319 139.005 210.424 137.438 209.815 135.648C209.206 133.84 208.902 131.879 208.902 129.767ZM217.952 129.203V129.767C217.952 130.859 218.033 131.879 218.194 132.828C218.355 133.777 218.624 134.61 219 135.326C219.375 136.024 219.886 136.57 220.53 136.964C221.175 137.358 221.98 137.555 222.947 137.555C223.896 137.555 224.684 137.358 225.311 136.964C225.955 136.57 226.465 136.024 226.841 135.326C227.217 134.61 227.486 133.777 227.647 132.828C227.808 131.879 227.889 130.859 227.889 129.767V129.203C227.889 128.146 227.808 127.153 227.647 126.222C227.486 125.273 227.217 124.44 226.841 123.724C226.465 122.99 225.955 122.417 225.311 122.005C224.666 121.594 223.86 121.388 222.894 121.388C221.945 121.388 221.148 121.594 220.503 122.005C219.877 122.417 219.375 122.99 219 123.724C218.624 124.44 218.355 125.273 218.194 126.222C218.033 127.153 217.952 128.146 217.952 129.203ZM257.94 136.937V114.942H267.017V144H258.531L257.94 136.937ZM258.799 131.029L261.163 130.975C261.163 132.927 260.93 134.735 260.464 136.4C259.999 138.047 259.31 139.479 258.396 140.697C257.501 141.914 256.391 142.863 255.066 143.543C253.759 144.206 252.247 144.537 250.528 144.537C249.096 144.537 247.78 144.34 246.58 143.946C245.398 143.535 244.378 142.899 243.519 142.04C242.659 141.162 241.988 140.043 241.504 138.683C241.039 137.304 240.806 135.657 240.806 133.741V114.942H249.856V133.795C249.856 134.439 249.937 134.994 250.098 135.46C250.259 135.925 250.492 136.319 250.796 136.642C251.101 136.946 251.477 137.179 251.924 137.34C252.39 137.483 252.918 137.555 253.509 137.555C254.869 137.555 255.935 137.268 256.705 136.695C257.474 136.122 258.012 135.344 258.316 134.359C258.638 133.374 258.799 132.264 258.799 131.029ZM281.143 122.14V144H272.093V114.942H280.552L281.143 122.14ZM289.737 114.728L289.576 123.133C289.218 123.097 288.734 123.053 288.125 122.999C287.517 122.945 287.007 122.918 286.595 122.918C285.538 122.918 284.625 123.044 283.855 123.294C283.104 123.527 282.477 123.885 281.976 124.369C281.492 124.834 281.134 125.425 280.901 126.141C280.687 126.857 280.588 127.69 280.606 128.639L278.968 127.564C278.968 125.613 279.156 123.84 279.532 122.247C279.926 120.636 280.481 119.248 281.197 118.084C281.913 116.903 282.781 115.999 283.802 115.372C284.822 114.728 285.968 114.405 287.239 114.405C287.687 114.405 288.125 114.432 288.555 114.486C289.003 114.54 289.397 114.62 289.737 114.728ZM316.001 140.455L323.79 104.898H328.436L330.96 107.933L322.662 144H317.532L316.001 140.455ZM313.934 104.898L320.513 140.724L318.821 144H312.886L304.588 104.898H313.934ZM335.23 140.536L341.756 104.898H351.075L342.776 144H336.868L335.23 140.536ZM331.792 104.898L339.769 140.67L338.157 144H333.028L324.542 107.879L327.173 104.898H331.792ZM368.531 136.695V124.718C368.531 123.894 368.414 123.187 368.182 122.596C367.949 122.005 367.582 121.549 367.081 121.227C366.579 120.886 365.908 120.716 365.066 120.716C364.386 120.716 363.804 120.833 363.321 121.065C362.837 121.298 362.47 121.647 362.22 122.113C361.969 122.578 361.844 123.169 361.844 123.885H352.793C352.793 122.542 353.089 121.298 353.68 120.152C354.288 118.989 355.148 117.977 356.258 117.118C357.386 116.258 358.729 115.596 360.286 115.13C361.862 114.647 363.616 114.405 365.55 114.405C367.859 114.405 369.918 114.79 371.727 115.56C373.553 116.33 374.994 117.485 376.05 119.024C377.107 120.546 377.635 122.462 377.635 124.771V136.668C377.635 138.566 377.742 140.007 377.957 140.992C378.172 141.959 378.476 142.809 378.87 143.543V144H369.793C369.363 143.105 369.041 142.013 368.826 140.724C368.629 139.417 368.531 138.074 368.531 136.695ZM369.632 126.249L369.686 131.083H365.684C364.843 131.083 364.126 131.199 363.536 131.432C362.963 131.664 362.497 131.987 362.139 132.398C361.799 132.792 361.548 133.24 361.387 133.741C361.244 134.243 361.172 134.771 361.172 135.326C361.172 135.863 361.298 136.346 361.548 136.776C361.817 137.188 362.175 137.51 362.623 137.743C363.07 137.975 363.571 138.092 364.126 138.092C365.129 138.092 365.979 137.904 366.678 137.528C367.394 137.134 367.94 136.66 368.316 136.104C368.692 135.549 368.88 135.03 368.88 134.547L370.867 138.253C370.509 138.969 370.097 139.694 369.632 140.428C369.184 141.162 368.62 141.843 367.94 142.469C367.278 143.078 366.463 143.579 365.496 143.973C364.529 144.349 363.357 144.537 361.978 144.537C360.188 144.537 358.541 144.17 357.037 143.436C355.551 142.702 354.36 141.681 353.465 140.375C352.57 139.05 352.122 137.528 352.122 135.809C352.122 134.305 352.391 132.962 352.928 131.781C353.483 130.599 354.315 129.597 355.425 128.773C356.535 127.949 357.95 127.323 359.668 126.893C361.387 126.463 363.41 126.249 365.738 126.249H369.632ZM391.143 140.589L398.663 114.942H408.384L396.702 148.324C396.451 149.058 396.12 149.846 395.708 150.687C395.297 151.546 394.733 152.361 394.017 153.131C393.3 153.901 392.378 154.527 391.25 155.011C390.14 155.494 388.762 155.736 387.115 155.736C386.237 155.736 385.593 155.691 385.181 155.602C384.787 155.53 384.179 155.396 383.355 155.199V148.727C383.588 148.727 383.785 148.727 383.946 148.727C384.125 148.727 384.322 148.727 384.537 148.727C385.503 148.727 386.273 148.628 386.846 148.431C387.437 148.234 387.885 147.948 388.189 147.572C388.511 147.196 388.762 146.739 388.941 146.202L391.143 140.589ZM389.236 114.942L394.957 135.272L395.95 144.859H389.881L379.542 114.942H389.236Z" fill="black"/>
<path d="M104.339 59.3726L97.5713 80H92.1196L101.365 55.1172H104.834L104.339 59.3726ZM109.961 80L103.177 59.3726L102.63 55.1172H106.133L115.43 80H109.961ZM109.654 70.7373V74.7534H96.5117V70.7373H109.654ZM122.625 53.75V80H117.686V53.75H122.625ZM131.888 61.5088V80H126.949V61.5088H131.888ZM126.641 56.6895C126.641 55.9717 126.892 55.3792 127.393 54.9121C127.894 54.445 128.567 54.2114 129.41 54.2114C130.241 54.2114 130.908 54.445 131.409 54.9121C131.922 55.3792 132.178 55.9717 132.178 56.6895C132.178 57.4072 131.922 57.9997 131.409 58.4668C130.908 58.9339 130.241 59.1675 129.41 59.1675C128.567 59.1675 127.894 58.9339 127.393 58.4668C126.892 57.9997 126.641 57.4072 126.641 56.6895ZM155.096 59.3726L148.328 80H142.876L152.122 55.1172H155.591L155.096 59.3726ZM160.718 80L153.934 59.3726L153.387 55.1172H156.89L166.187 80H160.718ZM160.411 70.7373V74.7534H147.269V70.7373H160.411ZM173.382 53.75V80H168.443V53.75H173.382ZM182.371 65.542V80H177.449V61.5088H182.081L182.371 65.542ZM187.942 61.3892L187.857 65.9521C187.618 65.918 187.327 65.8895 186.985 65.8667C186.655 65.8325 186.353 65.8154 186.08 65.8154C185.385 65.8154 184.781 65.9066 184.268 66.0889C183.767 66.2598 183.345 66.5161 183.003 66.8579C182.673 67.1997 182.422 67.6156 182.251 68.1055C182.092 68.5954 182.001 69.1536 181.978 69.7803L180.987 69.4727C180.987 68.2764 181.106 67.1769 181.346 66.1743C181.585 65.1603 181.932 64.2773 182.388 63.5254C182.855 62.7734 183.425 62.1924 184.097 61.7822C184.769 61.3721 185.538 61.167 186.404 61.167C186.678 61.167 186.957 61.1898 187.242 61.2354C187.527 61.2695 187.76 61.3208 187.942 61.3892ZM195.462 61.5088V80H190.523V61.5088H195.462ZM190.215 56.6895C190.215 55.9717 190.466 55.3792 190.967 54.9121C191.469 54.445 192.141 54.2114 192.984 54.2114C193.816 54.2114 194.482 54.445 194.983 54.9121C195.496 55.3792 195.752 55.9717 195.752 56.6895C195.752 57.4072 195.496 57.9997 194.983 58.4668C194.482 58.9339 193.816 59.1675 192.984 59.1675C192.141 59.1675 191.469 58.9339 190.967 58.4668C190.466 57.9997 190.215 57.4072 190.215 56.6895ZM210.45 75.9668V53.75H215.406V80H210.945L210.45 75.9668ZM198.76 70.9766V70.6177C198.76 69.2049 198.92 67.9232 199.239 66.7725C199.558 65.6104 200.025 64.6134 200.64 63.7817C201.255 62.95 202.013 62.3063 202.913 61.8506C203.813 61.3949 204.839 61.167 205.989 61.167C207.072 61.167 208.017 61.3949 208.826 61.8506C209.646 62.3063 210.341 62.9557 210.911 63.7988C211.492 64.6305 211.959 65.616 212.312 66.7554C212.666 67.8833 212.922 69.1195 213.082 70.4639V71.25C212.922 72.5374 212.666 73.7337 212.312 74.8389C211.959 75.944 211.492 76.9124 210.911 77.7441C210.341 78.5645 209.646 79.2025 208.826 79.6582C208.006 80.1139 207.049 80.3418 205.955 80.3418C204.804 80.3418 203.779 80.1082 202.879 79.6411C201.99 79.174 201.238 78.5189 200.623 77.6758C200.019 76.8327 199.558 75.8415 199.239 74.7021C198.92 73.5628 198.76 72.321 198.76 70.9766ZM203.682 70.6177V70.9766C203.682 71.7399 203.739 72.452 203.853 73.1128C203.978 73.7736 204.178 74.3604 204.451 74.873C204.736 75.3743 205.101 75.7674 205.545 76.0522C206.001 76.3257 206.553 76.4624 207.203 76.4624C208.046 76.4624 208.741 76.2744 209.288 75.8984C209.834 75.5111 210.25 74.9813 210.535 74.3091C210.831 73.6369 211.002 72.8621 211.048 71.9849V69.7461C211.014 69.0283 210.911 68.3846 210.74 67.8149C210.581 67.2339 210.341 66.7383 210.022 66.3281C209.715 65.918 209.327 65.599 208.86 65.3711C208.405 65.1432 207.863 65.0293 207.237 65.0293C206.599 65.0293 206.052 65.1774 205.596 65.4736C205.14 65.7585 204.77 66.1515 204.485 66.6528C204.212 67.1541 204.007 67.7466 203.87 68.4302C203.745 69.1024 203.682 69.8315 203.682 70.6177ZM229.231 75.8301V67.5928C229.231 67.0003 229.135 66.4933 228.941 66.0718C228.747 65.6388 228.445 65.3027 228.035 65.0635C227.636 64.8242 227.118 64.7046 226.48 64.7046C225.933 64.7046 225.46 64.8014 225.062 64.9951C224.663 65.1774 224.355 65.4451 224.139 65.7983C223.922 66.1401 223.814 66.5446 223.814 67.0117H218.892C218.892 66.2256 219.074 65.4793 219.439 64.7729C219.804 64.0666 220.333 63.4456 221.028 62.9102C221.723 62.3633 222.549 61.936 223.506 61.6284C224.475 61.3208 225.557 61.167 226.753 61.167C228.189 61.167 229.465 61.4062 230.582 61.8848C231.698 62.3633 232.575 63.0811 233.213 64.0381C233.863 64.9951 234.188 66.1914 234.188 67.627V75.5396C234.188 76.5535 234.25 77.3853 234.375 78.0347C234.501 78.6727 234.683 79.231 234.922 79.7095V80H229.949C229.71 79.4987 229.528 78.8721 229.402 78.1201C229.288 77.3568 229.231 76.5934 229.231 75.8301ZM229.881 68.7378L229.915 71.5234H227.164C226.514 71.5234 225.95 71.5975 225.472 71.7456C224.993 71.8937 224.6 72.1045 224.292 72.3779C223.985 72.64 223.757 72.9476 223.609 73.3008C223.472 73.654 223.404 74.0413 223.404 74.4629C223.404 74.8844 223.501 75.2661 223.694 75.6079C223.888 75.9383 224.167 76.2004 224.532 76.394C224.896 76.5763 225.324 76.6675 225.813 76.6675C226.554 76.6675 227.198 76.5194 227.745 76.2231C228.292 75.9269 228.713 75.5623 229.009 75.1294C229.317 74.6965 229.476 74.2863 229.488 73.8989L230.787 75.9839C230.604 76.451 230.354 76.9352 230.035 77.4365C229.727 77.9378 229.334 78.4106 228.855 78.855C228.377 79.2879 227.802 79.6468 227.129 79.9316C226.457 80.2051 225.66 80.3418 224.737 80.3418C223.563 80.3418 222.498 80.1082 221.541 79.6411C220.595 79.1626 219.843 78.5075 219.285 77.6758C218.738 76.8327 218.465 75.8757 218.465 74.8047C218.465 73.8363 218.647 72.9761 219.012 72.2241C219.376 71.4722 219.912 70.8398 220.618 70.3271C221.336 69.8031 222.23 69.41 223.301 69.1479C224.372 68.8745 225.614 68.7378 227.027 68.7378H229.881ZM259.959 73.4888C259.959 73.0444 259.891 72.6457 259.754 72.2925C259.629 71.9279 259.389 71.5975 259.036 71.3013C258.683 70.9937 258.187 70.6917 257.549 70.3955C256.911 70.0993 256.085 69.7917 255.071 69.4727C253.943 69.1081 252.872 68.6979 251.858 68.2422C250.856 67.7865 249.967 67.2567 249.192 66.6528C248.429 66.0376 247.825 65.3255 247.381 64.5166C246.948 63.7077 246.731 62.7677 246.731 61.6968C246.731 60.66 246.959 59.7201 247.415 58.877C247.871 58.0225 248.509 57.2933 249.329 56.6895C250.149 56.0742 251.118 55.6014 252.234 55.271C253.362 54.9406 254.598 54.7754 255.943 54.7754C257.777 54.7754 259.378 55.1058 260.745 55.7666C262.112 56.4274 263.172 57.3332 263.924 58.4839C264.687 59.6346 265.069 60.9505 265.069 62.4316H259.976C259.976 61.7025 259.822 61.0645 259.515 60.5176C259.218 59.9593 258.763 59.5207 258.147 59.2017C257.544 58.8826 256.78 58.7231 255.857 58.7231C254.969 58.7231 254.228 58.8599 253.636 59.1333C253.043 59.3953 252.599 59.7542 252.303 60.21C252.007 60.6543 251.858 61.1556 251.858 61.7139C251.858 62.1354 251.961 62.5171 252.166 62.8589C252.382 63.2007 252.701 63.5197 253.123 63.8159C253.545 64.1121 254.063 64.3913 254.678 64.6533C255.293 64.9154 256.006 65.1717 256.814 65.4224C258.17 65.8325 259.361 66.2939 260.386 66.8066C261.423 67.3193 262.289 67.8947 262.984 68.5327C263.679 69.1707 264.203 69.8942 264.556 70.7031C264.909 71.512 265.086 72.4292 265.086 73.4546C265.086 74.5369 264.875 75.5054 264.454 76.3599C264.032 77.2144 263.423 77.9378 262.625 78.5303C261.827 79.1227 260.876 79.5728 259.771 79.8804C258.666 80.188 257.43 80.3418 256.062 80.3418C254.832 80.3418 253.619 80.1823 252.422 79.8633C251.226 79.5329 250.138 79.0373 249.158 78.3765C248.19 77.7157 247.415 76.8726 246.834 75.8472C246.253 74.8218 245.962 73.6084 245.962 72.207H251.106C251.106 72.9818 251.226 73.6369 251.465 74.1724C251.705 74.7078 252.041 75.1408 252.474 75.4712C252.918 75.8016 253.442 76.0409 254.046 76.189C254.661 76.3371 255.333 76.4111 256.062 76.4111C256.951 76.4111 257.68 76.2858 258.25 76.0352C258.831 75.7845 259.258 75.437 259.532 74.9927C259.817 74.5483 259.959 74.047 259.959 73.4888ZM273.067 53.75V80H268.145V53.75H273.067ZM272.366 70.105H271.016C271.028 68.8175 271.198 67.6326 271.529 66.5503C271.859 65.4565 272.332 64.5109 272.947 63.7134C273.562 62.9045 274.297 62.2778 275.152 61.8335C276.018 61.3892 276.975 61.167 278.023 61.167C278.934 61.167 279.76 61.298 280.501 61.5601C281.253 61.8107 281.897 62.2209 282.432 62.7905C282.979 63.3488 283.401 64.0837 283.697 64.9951C283.993 65.9066 284.141 67.0117 284.141 68.3105V80H279.185V68.2764C279.185 67.4561 279.065 66.8123 278.826 66.3452C278.598 65.8667 278.262 65.5306 277.818 65.3369C277.385 65.1318 276.849 65.0293 276.211 65.0293C275.505 65.0293 274.901 65.1603 274.4 65.4224C273.91 65.6844 273.517 66.049 273.221 66.5161C272.924 66.9718 272.708 67.5073 272.571 68.1226C272.435 68.7378 272.366 69.3986 272.366 70.105ZM287.098 70.9424V70.5835C287.098 69.2277 287.291 67.9801 287.679 66.8408C288.066 65.6901 288.63 64.6932 289.371 63.8501C290.111 63.007 291.023 62.3519 292.105 61.8848C293.187 61.4062 294.429 61.167 295.831 61.167C297.232 61.167 298.479 61.4062 299.573 61.8848C300.667 62.3519 301.584 63.007 302.325 63.8501C303.077 64.6932 303.646 65.6901 304.034 66.8408C304.421 67.9801 304.615 69.2277 304.615 70.5835V70.9424C304.615 72.2868 304.421 73.5343 304.034 74.6851C303.646 75.8244 303.077 76.8213 302.325 77.6758C301.584 78.5189 300.673 79.174 299.59 79.6411C298.508 80.1082 297.266 80.3418 295.865 80.3418C294.463 80.3418 293.216 80.1082 292.122 79.6411C291.04 79.174 290.123 78.5189 289.371 77.6758C288.63 76.8213 288.066 75.8244 287.679 74.6851C287.291 73.5343 287.098 72.2868 287.098 70.9424ZM292.02 70.5835V70.9424C292.02 71.7171 292.088 72.4406 292.225 73.1128C292.361 73.785 292.578 74.3774 292.874 74.8901C293.182 75.3914 293.58 75.7845 294.07 76.0693C294.56 76.3542 295.158 76.4966 295.865 76.4966C296.548 76.4966 297.135 76.3542 297.625 76.0693C298.115 75.7845 298.508 75.3914 298.804 74.8901C299.1 74.3774 299.317 73.785 299.454 73.1128C299.602 72.4406 299.676 71.7171 299.676 70.9424V70.5835C299.676 69.8315 299.602 69.1252 299.454 68.4644C299.317 67.7922 299.095 67.1997 298.787 66.687C298.491 66.1629 298.098 65.7528 297.608 65.4565C297.118 65.1603 296.526 65.0122 295.831 65.0122C295.136 65.0122 294.543 65.1603 294.053 65.4565C293.575 65.7528 293.182 66.1629 292.874 66.687C292.578 67.1997 292.361 67.7922 292.225 68.4644C292.088 69.1252 292.02 69.8315 292.02 70.5835ZM318.577 75.5737V61.5088H323.499V80H318.868L318.577 75.5737ZM319.124 71.7798L320.577 71.7456C320.577 72.9761 320.434 74.1211 320.149 75.1807C319.865 76.2288 319.437 77.1403 318.868 77.915C318.298 78.6784 317.58 79.2765 316.714 79.7095C315.848 80.131 314.829 80.3418 313.655 80.3418C312.755 80.3418 311.924 80.2165 311.16 79.9658C310.408 79.7038 309.759 79.2993 309.212 78.7524C308.676 78.1942 308.255 77.4821 307.947 76.6162C307.651 75.7389 307.503 74.6851 307.503 73.4546V61.5088H312.425V73.4888C312.425 74.0356 312.487 74.4971 312.613 74.873C312.75 75.249 312.938 75.5566 313.177 75.7959C313.416 76.0352 313.695 76.2061 314.014 76.3086C314.345 76.4111 314.709 76.4624 315.108 76.4624C316.122 76.4624 316.919 76.2573 317.5 75.8472C318.093 75.437 318.509 74.8787 318.748 74.1724C318.999 73.4546 319.124 72.6571 319.124 71.7798ZM332.181 65.3369V80H327.242V61.5088H331.873L332.181 65.3369ZM331.497 70.105H330.13C330.13 68.8175 330.284 67.6326 330.591 66.5503C330.91 65.4565 331.372 64.5109 331.976 63.7134C332.591 62.9045 333.348 62.2778 334.249 61.8335C335.149 61.3892 336.191 61.167 337.376 61.167C338.196 61.167 338.948 61.2923 339.632 61.543C340.315 61.7822 340.902 62.1639 341.392 62.688C341.893 63.2007 342.281 63.8729 342.554 64.7046C342.828 65.5249 342.964 66.5104 342.964 67.6611V80H338.042V68.208C338.042 67.3649 337.929 66.7155 337.701 66.2598C337.473 65.804 337.148 65.485 336.727 65.3027C336.316 65.1204 335.821 65.0293 335.24 65.0293C334.602 65.0293 334.043 65.1603 333.565 65.4224C333.098 65.6844 332.71 66.049 332.403 66.5161C332.095 66.9718 331.867 67.5073 331.719 68.1226C331.571 68.7378 331.497 69.3986 331.497 70.105ZM342.503 69.541L340.743 69.7632C340.743 68.5555 340.891 67.4333 341.187 66.3965C341.495 65.3597 341.945 64.4482 342.537 63.6621C343.141 62.876 343.887 62.2664 344.776 61.8335C345.665 61.3892 346.69 61.167 347.852 61.167C348.741 61.167 349.55 61.298 350.279 61.5601C351.008 61.8107 351.629 62.2152 352.142 62.7734C352.666 63.3203 353.064 64.0381 353.338 64.9268C353.623 65.8154 353.765 66.9035 353.765 68.1909V80H348.826V68.1909C348.826 67.3364 348.712 66.687 348.484 66.2427C348.268 65.7869 347.949 65.4736 347.527 65.3027C347.117 65.1204 346.627 65.0293 346.058 65.0293C345.465 65.0293 344.947 65.1489 344.502 65.3882C344.058 65.616 343.688 65.9351 343.392 66.3452C343.095 66.7554 342.873 67.2339 342.725 67.7808C342.577 68.3162 342.503 68.903 342.503 69.541ZM367.557 75.8301V67.5928C367.557 67.0003 367.46 66.4933 367.266 66.0718C367.072 65.6388 366.771 65.3027 366.36 65.0635C365.962 64.8242 365.443 64.7046 364.805 64.7046C364.258 64.7046 363.785 64.8014 363.387 64.9951C362.988 65.1774 362.68 65.4451 362.464 65.7983C362.247 66.1401 362.139 66.5446 362.139 67.0117H357.217C357.217 66.2256 357.4 65.4793 357.764 64.7729C358.129 64.0666 358.659 63.4456 359.354 62.9102C360.049 62.3633 360.875 61.936 361.832 61.6284C362.8 61.3208 363.882 61.167 365.079 61.167C366.514 61.167 367.79 61.4062 368.907 61.8848C370.023 62.3633 370.901 63.0811 371.539 64.0381C372.188 64.9951 372.513 66.1914 372.513 67.627V75.5396C372.513 76.5535 372.575 77.3853 372.701 78.0347C372.826 78.6727 373.008 79.231 373.248 79.7095V80H368.274C368.035 79.4987 367.853 78.8721 367.728 78.1201C367.614 77.3568 367.557 76.5934 367.557 75.8301ZM368.206 68.7378L368.24 71.5234H365.489C364.839 71.5234 364.275 71.5975 363.797 71.7456C363.318 71.8937 362.925 72.1045 362.618 72.3779C362.31 72.64 362.082 72.9476 361.934 73.3008C361.797 73.654 361.729 74.0413 361.729 74.4629C361.729 74.8844 361.826 75.2661 362.02 75.6079C362.213 75.9383 362.492 76.2004 362.857 76.394C363.222 76.5763 363.649 76.6675 364.139 76.6675C364.879 76.6675 365.523 76.5194 366.07 76.2231C366.617 75.9269 367.038 75.5623 367.334 75.1294C367.642 74.6965 367.802 74.2863 367.813 73.8989L369.112 75.9839C368.93 76.451 368.679 76.9352 368.36 77.4365C368.052 77.9378 367.659 78.4106 367.181 78.855C366.702 79.2879 366.127 79.6468 365.455 79.9316C364.782 80.2051 363.985 80.3418 363.062 80.3418C361.889 80.3418 360.823 80.1082 359.866 79.6411C358.921 79.1626 358.169 78.5075 357.61 77.6758C357.063 76.8327 356.79 75.8757 356.79 74.8047C356.79 73.8363 356.972 72.9761 357.337 72.2241C357.701 71.4722 358.237 70.8398 358.943 70.3271C359.661 69.8031 360.556 69.41 361.626 69.1479C362.697 68.8745 363.939 68.7378 365.352 68.7378H368.206ZM381.126 65.4565V80H376.204V61.5088H380.818L381.126 65.4565ZM380.408 70.105H379.075C379.075 68.7378 379.252 67.5073 379.605 66.4136C379.958 65.3084 380.454 64.3685 381.092 63.5938C381.73 62.8076 382.487 62.2095 383.365 61.7993C384.253 61.3778 385.245 61.167 386.338 61.167C387.204 61.167 387.996 61.2923 388.714 61.543C389.432 61.7936 390.047 62.1924 390.56 62.7393C391.084 63.2861 391.482 64.0096 391.756 64.9097C392.041 65.8097 392.183 66.9092 392.183 68.208V80H387.227V68.1909C387.227 67.3706 387.113 66.7326 386.885 66.2769C386.657 65.8211 386.321 65.5021 385.877 65.3198C385.444 65.1261 384.909 65.0293 384.271 65.0293C383.61 65.0293 383.034 65.1603 382.544 65.4224C382.066 65.6844 381.667 66.049 381.348 66.5161C381.041 66.9718 380.807 67.5073 380.647 68.1226C380.488 68.7378 380.408 69.3986 380.408 70.105Z" fill="#888888"/>
<rect x="92" y="181" width="1179" height="80" rx="13.3333" fill="#CCCCCC"/>
<rect x="107" y="196.333" width="208" height="49.3333" rx="4.66667" fill="#888888" stroke="#888888" stroke-width="4"/>
<path d="M150.833 213.167H156.802C157.969 213.167 158.983 213.34 159.844 213.687C160.705 214.035 161.368 214.549 161.833 215.229C162.306 215.91 162.542 216.75 162.542 217.75C162.542 218.618 162.406 219.344 162.135 219.927C161.865 220.51 161.486 220.993 161 221.375C160.521 221.75 159.962 222.059 159.323 222.302L158.125 222.979H153.115L153.094 220.156H156.802C157.267 220.156 157.653 220.073 157.958 219.906C158.264 219.74 158.493 219.503 158.646 219.198C158.806 218.885 158.885 218.514 158.885 218.083C158.885 217.646 158.806 217.271 158.646 216.958C158.486 216.646 158.25 216.406 157.937 216.24C157.632 216.073 157.253 215.99 156.802 215.99H154.49V228.333H150.833V213.167ZM159.135 228.333L155.781 221.625L159.656 221.604L163.052 228.177V228.333H159.135ZM170.042 228.542C169.125 228.542 168.306 228.399 167.583 228.115C166.861 227.823 166.25 227.424 165.75 226.917C165.257 226.41 164.878 225.826 164.615 225.167C164.358 224.507 164.229 223.809 164.229 223.073V222.677C164.229 221.851 164.344 221.087 164.573 220.385C164.802 219.677 165.142 219.059 165.594 218.531C166.045 218.003 166.611 217.594 167.292 217.302C167.972 217.003 168.764 216.854 169.667 216.854C170.465 216.854 171.181 216.983 171.813 217.24C172.444 217.497 172.979 217.865 173.417 218.344C173.861 218.823 174.198 219.403 174.427 220.083C174.663 220.764 174.781 221.528 174.781 222.375V223.802H165.573V221.604H171.354V221.333C171.361 220.958 171.295 220.639 171.156 220.375C171.024 220.111 170.83 219.91 170.573 219.771C170.316 219.632 170.003 219.562 169.635 219.562C169.253 219.562 168.938 219.646 168.688 219.812C168.444 219.979 168.253 220.208 168.115 220.5C167.983 220.785 167.889 221.115 167.833 221.49C167.778 221.865 167.75 222.26 167.75 222.677V223.073C167.75 223.49 167.806 223.868 167.917 224.208C168.035 224.549 168.201 224.84 168.417 225.083C168.639 225.319 168.903 225.503 169.208 225.635C169.521 225.767 169.875 225.833 170.271 225.833C170.75 225.833 171.222 225.743 171.688 225.562C172.153 225.382 172.552 225.083 172.885 224.667L174.479 226.562C174.25 226.889 173.924 227.205 173.5 227.51C173.083 227.816 172.583 228.066 172 228.26C171.417 228.448 170.764 228.542 170.042 228.542ZM182.063 225.5V220.854C182.063 220.535 182.017 220.26 181.927 220.031C181.837 219.802 181.694 219.625 181.5 219.5C181.306 219.368 181.045 219.302 180.719 219.302C180.455 219.302 180.229 219.347 180.042 219.437C179.854 219.528 179.712 219.663 179.615 219.844C179.517 220.024 179.469 220.253 179.469 220.531H175.958C175.958 220.01 176.073 219.528 176.302 219.083C176.538 218.632 176.872 218.24 177.302 217.906C177.74 217.573 178.26 217.316 178.865 217.135C179.476 216.948 180.156 216.854 180.906 216.854C181.802 216.854 182.601 217.003 183.302 217.302C184.01 217.601 184.569 218.049 184.979 218.646C185.389 219.236 185.594 219.979 185.594 220.875V225.49C185.594 226.226 185.635 226.785 185.719 227.167C185.802 227.542 185.92 227.872 186.073 228.156V228.333H182.552C182.385 227.986 182.26 227.562 182.177 227.062C182.101 226.556 182.063 226.035 182.063 225.5ZM182.49 221.448L182.51 223.323H180.958C180.632 223.323 180.354 223.368 180.125 223.458C179.903 223.549 179.722 223.674 179.583 223.833C179.451 223.986 179.354 224.16 179.292 224.354C179.236 224.549 179.208 224.753 179.208 224.969C179.208 225.177 179.257 225.365 179.354 225.531C179.458 225.691 179.597 225.816 179.771 225.906C179.944 225.997 180.139 226.042 180.354 226.042C180.743 226.042 181.073 225.969 181.344 225.823C181.622 225.67 181.833 225.486 181.979 225.271C182.125 225.056 182.198 224.854 182.198 224.667L182.969 226.104C182.83 226.382 182.67 226.663 182.49 226.948C182.316 227.233 182.097 227.497 181.833 227.74C181.576 227.976 181.26 228.17 180.885 228.323C180.51 228.469 180.056 228.542 179.521 228.542C178.826 228.542 178.188 228.399 177.604 228.115C177.028 227.83 176.566 227.434 176.219 226.927C175.872 226.413 175.698 225.823 175.698 225.156C175.698 224.573 175.802 224.052 176.01 223.594C176.226 223.135 176.549 222.747 176.979 222.427C177.41 222.108 177.958 221.865 178.625 221.698C179.292 221.531 180.076 221.448 180.979 221.448H182.49ZM192.302 225.833C192.628 225.833 192.906 225.774 193.135 225.656C193.372 225.531 193.549 225.358 193.667 225.135C193.792 224.906 193.851 224.632 193.844 224.312H197.146C197.153 225.16 196.944 225.903 196.521 226.542C196.104 227.174 195.535 227.667 194.812 228.021C194.097 228.368 193.288 228.542 192.385 228.542C191.503 228.542 190.733 228.399 190.073 228.115C189.413 227.823 188.861 227.42 188.417 226.906C187.979 226.385 187.649 225.778 187.427 225.083C187.212 224.389 187.104 223.635 187.104 222.823V222.583C187.104 221.771 187.212 221.017 187.427 220.323C187.649 219.622 187.979 219.014 188.417 218.5C188.861 217.979 189.41 217.576 190.062 217.292C190.722 217 191.49 216.854 192.365 216.854C193.302 216.854 194.128 217.031 194.844 217.385C195.566 217.74 196.132 218.253 196.542 218.927C196.951 219.601 197.153 220.417 197.146 221.375H193.844C193.851 221.035 193.799 220.729 193.687 220.458C193.576 220.187 193.403 219.972 193.167 219.812C192.937 219.646 192.642 219.562 192.281 219.562C191.92 219.562 191.628 219.642 191.406 219.802C191.184 219.962 191.014 220.184 190.896 220.469C190.785 220.747 190.708 221.066 190.667 221.427C190.632 221.788 190.615 222.174 190.615 222.583V222.823C190.615 223.24 190.632 223.632 190.667 224C190.708 224.361 190.788 224.681 190.906 224.958C191.024 225.229 191.194 225.444 191.417 225.604C191.639 225.757 191.934 225.833 192.302 225.833ZM204.583 217.062V219.5H197.792V217.062H204.583ZM199.219 214.26H202.729V224.656C202.729 224.955 202.764 225.187 202.833 225.354C202.903 225.514 203.021 225.628 203.188 225.698C203.361 225.76 203.59 225.792 203.875 225.792C204.076 225.792 204.243 225.788 204.375 225.781C204.507 225.767 204.632 225.75 204.75 225.729V228.24C204.451 228.337 204.139 228.41 203.813 228.458C203.486 228.514 203.139 228.542 202.771 228.542C202.021 228.542 201.378 228.424 200.844 228.187C200.316 227.951 199.913 227.58 199.635 227.073C199.358 226.566 199.219 225.906 199.219 225.094V214.26ZM224.125 213.167V228.333H220.479L215.115 218.896V228.333H211.458V213.167H215.115L220.479 222.604V213.167H224.125ZM232.125 225.5V220.854C232.125 220.535 232.08 220.26 231.99 220.031C231.899 219.802 231.757 219.625 231.563 219.5C231.368 219.368 231.108 219.302 230.781 219.302C230.517 219.302 230.292 219.347 230.104 219.437C229.917 219.528 229.774 219.663 229.677 219.844C229.58 220.024 229.531 220.253 229.531 220.531H226.021C226.021 220.01 226.135 219.528 226.365 219.083C226.601 218.632 226.934 218.24 227.365 217.906C227.802 217.573 228.323 217.316 228.927 217.135C229.538 216.948 230.219 216.854 230.969 216.854C231.865 216.854 232.663 217.003 233.365 217.302C234.073 217.601 234.632 218.049 235.042 218.646C235.451 219.236 235.656 219.979 235.656 220.875V225.49C235.656 226.226 235.698 226.785 235.781 227.167C235.865 227.542 235.983 227.872 236.135 228.156V228.333H232.615C232.448 227.986 232.323 227.562 232.24 227.062C232.163 226.556 232.125 226.035 232.125 225.5ZM232.552 221.448L232.573 223.323H231.021C230.694 223.323 230.417 223.368 230.188 223.458C229.965 223.549 229.785 223.674 229.646 223.833C229.514 223.986 229.417 224.16 229.354 224.354C229.299 224.549 229.271 224.753 229.271 224.969C229.271 225.177 229.319 225.365 229.417 225.531C229.521 225.691 229.66 225.816 229.833 225.906C230.007 225.997 230.201 226.042 230.417 226.042C230.806 226.042 231.135 225.969 231.406 225.823C231.684 225.67 231.896 225.486 232.042 225.271C232.188 225.056 232.26 224.854 232.26 224.667L233.031 226.104C232.892 226.382 232.733 226.663 232.552 226.948C232.378 227.233 232.16 227.497 231.896 227.74C231.639 227.976 231.323 228.17 230.948 228.323C230.573 228.469 230.118 228.542 229.583 228.542C228.889 228.542 228.25 228.399 227.667 228.115C227.09 227.83 226.628 227.434 226.281 226.927C225.934 226.413 225.76 225.823 225.76 225.156C225.76 224.573 225.865 224.052 226.073 223.594C226.288 223.135 226.611 222.747 227.042 222.427C227.472 222.108 228.021 221.865 228.688 221.698C229.354 221.531 230.139 221.448 231.042 221.448H232.552ZM243.542 217.062V219.5H236.75V217.062H243.542ZM238.177 214.26H241.687V224.656C241.687 224.955 241.722 225.187 241.792 225.354C241.861 225.514 241.979 225.628 242.146 225.698C242.319 225.76 242.549 225.792 242.833 225.792C243.035 225.792 243.201 225.788 243.333 225.781C243.465 225.767 243.59 225.75 243.708 225.729V228.24C243.41 228.337 243.097 228.41 242.771 228.458C242.444 228.514 242.097 228.542 241.729 228.542C240.979 228.542 240.337 228.424 239.802 228.187C239.274 227.951 238.872 227.58 238.594 227.073C238.316 226.566 238.177 225.906 238.177 225.094V214.26ZM248.646 217.062V228.333H245.125V217.062H248.646ZM244.917 214.156C244.917 213.656 245.097 213.247 245.458 212.927C245.819 212.608 246.288 212.448 246.865 212.448C247.441 212.448 247.91 212.608 248.271 212.927C248.632 213.247 248.813 213.656 248.813 214.156C248.813 214.656 248.632 215.066 248.271 215.385C247.91 215.705 247.441 215.865 246.865 215.865C246.288 215.865 245.819 215.705 245.458 215.385C245.097 215.066 244.917 214.656 244.917 214.156ZM254.875 225.927L257.094 217.062H260.792L257.104 228.333H254.917L254.875 225.927ZM253.563 217.062L255.75 225.927L255.729 228.333H253.531L249.854 217.062H253.563ZM267.146 228.542C266.229 228.542 265.41 228.399 264.688 228.115C263.965 227.823 263.354 227.424 262.854 226.917C262.361 226.41 261.983 225.826 261.719 225.167C261.462 224.507 261.333 223.809 261.333 223.073V222.677C261.333 221.851 261.448 221.087 261.677 220.385C261.906 219.677 262.247 219.059 262.698 218.531C263.149 218.003 263.715 217.594 264.396 217.302C265.076 217.003 265.868 216.854 266.771 216.854C267.569 216.854 268.285 216.983 268.917 217.24C269.549 217.497 270.083 217.865 270.521 218.344C270.965 218.823 271.302 219.403 271.531 220.083C271.767 220.764 271.885 221.528 271.885 222.375V223.802H262.677V221.604H268.458V221.333C268.465 220.958 268.399 220.639 268.26 220.375C268.128 220.111 267.934 219.91 267.677 219.771C267.42 219.632 267.108 219.562 266.74 219.562C266.358 219.562 266.042 219.646 265.792 219.812C265.549 219.979 265.358 220.208 265.219 220.5C265.087 220.785 264.993 221.115 264.938 221.49C264.882 221.865 264.854 222.26 264.854 222.677V223.073C264.854 223.49 264.91 223.868 265.021 224.208C265.139 224.549 265.306 224.84 265.521 225.083C265.743 225.319 266.007 225.503 266.313 225.635C266.625 225.767 266.979 225.833 267.375 225.833C267.854 225.833 268.326 225.743 268.792 225.562C269.257 225.382 269.656 225.083 269.99 224.667L271.583 226.562C271.354 226.889 271.028 227.205 270.604 227.51C270.188 227.816 269.688 228.066 269.104 228.26C268.521 228.448 267.868 228.542 267.146 228.542Z" fill="white"/>
<rect x="339" y="196.333" width="208" height="49.3333" rx="4.66667" fill="#888888" stroke="#888888" stroke-width="4"/>
<path d="M403.823 213.167H409.792C410.958 213.167 411.972 213.34 412.833 213.687C413.694 214.035 414.358 214.549 414.823 215.229C415.295 215.91 415.531 216.75 415.531 217.75C415.531 218.618 415.396 219.344 415.125 219.927C414.854 220.51 414.476 220.993 413.99 221.375C413.51 221.75 412.951 222.059 412.312 222.302L411.115 222.979H406.104L406.083 220.156H409.792C410.257 220.156 410.642 220.073 410.948 219.906C411.253 219.74 411.483 219.503 411.635 219.198C411.795 218.885 411.875 218.514 411.875 218.083C411.875 217.646 411.795 217.271 411.635 216.958C411.476 216.646 411.24 216.406 410.927 216.24C410.622 216.073 410.243 215.99 409.792 215.99H407.479V228.333H403.823V213.167ZM412.125 228.333L408.771 221.625L412.646 221.604L416.042 228.177V228.333H412.125ZM423.031 228.542C422.115 228.542 421.295 228.399 420.573 228.115C419.851 227.823 419.24 227.424 418.74 226.917C418.247 226.41 417.868 225.826 417.604 225.167C417.347 224.507 417.219 223.809 417.219 223.073V222.677C417.219 221.851 417.333 221.087 417.562 220.385C417.792 219.677 418.132 219.059 418.583 218.531C419.035 218.003 419.601 217.594 420.281 217.302C420.962 217.003 421.753 216.854 422.656 216.854C423.455 216.854 424.17 216.983 424.802 217.24C425.434 217.497 425.969 217.865 426.406 218.344C426.851 218.823 427.187 219.403 427.417 220.083C427.653 220.764 427.771 221.528 427.771 222.375V223.802H418.562V221.604H424.344V221.333C424.351 220.958 424.285 220.639 424.146 220.375C424.014 220.111 423.819 219.91 423.562 219.771C423.306 219.632 422.993 219.562 422.625 219.562C422.243 219.562 421.927 219.646 421.677 219.812C421.434 219.979 421.243 220.208 421.104 220.5C420.972 220.785 420.878 221.115 420.823 221.49C420.767 221.865 420.74 222.26 420.74 222.677V223.073C420.74 223.49 420.795 223.868 420.906 224.208C421.024 224.549 421.191 224.84 421.406 225.083C421.628 225.319 421.892 225.503 422.198 225.635C422.51 225.767 422.865 225.833 423.26 225.833C423.74 225.833 424.212 225.743 424.677 225.562C425.142 225.382 425.542 225.083 425.875 224.667L427.469 226.562C427.24 226.889 426.913 227.205 426.49 227.51C426.073 227.816 425.573 228.066 424.99 228.26C424.406 228.448 423.753 228.542 423.031 228.542ZM435.052 225.5V220.854C435.052 220.535 435.007 220.26 434.917 220.031C434.826 219.802 434.684 219.625 434.49 219.5C434.295 219.368 434.035 219.302 433.708 219.302C433.444 219.302 433.219 219.347 433.031 219.437C432.844 219.528 432.701 219.663 432.604 219.844C432.507 220.024 432.458 220.253 432.458 220.531H428.948C428.948 220.01 429.062 219.528 429.292 219.083C429.528 218.632 429.861 218.24 430.292 217.906C430.729 217.573 431.25 217.316 431.854 217.135C432.465 216.948 433.146 216.854 433.896 216.854C434.792 216.854 435.59 217.003 436.292 217.302C437 217.601 437.559 218.049 437.969 218.646C438.378 219.236 438.583 219.979 438.583 220.875V225.49C438.583 226.226 438.625 226.785 438.708 227.167C438.792 227.542 438.91 227.872 439.062 228.156V228.333H435.542C435.375 227.986 435.25 227.562 435.167 227.062C435.09 226.556 435.052 226.035 435.052 225.5ZM435.479 221.448L435.5 223.323H433.948C433.622 223.323 433.344 223.368 433.115 223.458C432.892 223.549 432.712 223.674 432.573 223.833C432.441 223.986 432.344 224.16 432.281 224.354C432.226 224.549 432.198 224.753 432.198 224.969C432.198 225.177 432.247 225.365 432.344 225.531C432.448 225.691 432.587 225.816 432.76 225.906C432.934 225.997 433.128 226.042 433.344 226.042C433.733 226.042 434.062 225.969 434.333 225.823C434.611 225.67 434.823 225.486 434.969 225.271C435.115 225.056 435.187 224.854 435.187 224.667L435.958 226.104C435.819 226.382 435.66 226.663 435.479 226.948C435.306 227.233 435.087 227.497 434.823 227.74C434.566 227.976 434.25 228.17 433.875 228.323C433.5 228.469 433.045 228.542 432.51 228.542C431.816 228.542 431.177 228.399 430.594 228.115C430.017 227.83 429.556 227.434 429.208 226.927C428.861 226.413 428.687 225.823 428.687 225.156C428.687 224.573 428.792 224.052 429 223.594C429.215 223.135 429.538 222.747 429.969 222.427C430.399 222.108 430.948 221.865 431.615 221.698C432.281 221.531 433.066 221.448 433.969 221.448H435.479ZM445.292 225.833C445.618 225.833 445.896 225.774 446.125 225.656C446.361 225.531 446.538 225.358 446.656 225.135C446.781 224.906 446.84 224.632 446.833 224.312H450.135C450.142 225.16 449.934 225.903 449.51 226.542C449.094 227.174 448.524 227.667 447.802 228.021C447.087 228.368 446.278 228.542 445.375 228.542C444.493 228.542 443.722 228.399 443.062 228.115C442.403 227.823 441.851 227.42 441.406 226.906C440.969 226.385 440.639 225.778 440.417 225.083C440.201 224.389 440.094 223.635 440.094 222.823V222.583C440.094 221.771 440.201 221.017 440.417 220.323C440.639 219.622 440.969 219.014 441.406 218.5C441.851 217.979 442.399 217.576 443.052 217.292C443.712 217 444.479 216.854 445.354 216.854C446.292 216.854 447.118 217.031 447.833 217.385C448.556 217.74 449.122 218.253 449.531 218.927C449.941 219.601 450.142 220.417 450.135 221.375H446.833C446.84 221.035 446.788 220.729 446.677 220.458C446.566 220.187 446.392 219.972 446.156 219.812C445.927 219.646 445.632 219.562 445.271 219.562C444.91 219.562 444.618 219.642 444.396 219.802C444.174 219.962 444.003 220.184 443.885 220.469C443.774 220.747 443.698 221.066 443.656 221.427C443.622 221.788 443.604 222.174 443.604 222.583V222.823C443.604 223.24 443.622 223.632 443.656 224C443.698 224.361 443.778 224.681 443.896 224.958C444.014 225.229 444.184 225.444 444.406 225.604C444.628 225.757 444.924 225.833 445.292 225.833ZM457.573 217.062V219.5H450.781V217.062H457.573ZM452.208 214.26H455.719V224.656C455.719 224.955 455.753 225.187 455.823 225.354C455.892 225.514 456.01 225.628 456.177 225.698C456.351 225.76 456.58 225.792 456.865 225.792C457.066 225.792 457.233 225.788 457.365 225.781C457.497 225.767 457.622 225.75 457.74 225.729V228.24C457.441 228.337 457.128 228.41 456.802 228.458C456.476 228.514 456.128 228.542 455.76 228.542C455.01 228.542 454.368 228.424 453.833 228.187C453.306 227.951 452.903 227.58 452.625 227.073C452.347 226.566 452.208 225.906 452.208 225.094V214.26ZM465.167 223.573V213.167H468.812V223.573C468.812 224.587 468.58 225.465 468.115 226.208C467.656 226.951 467.031 227.528 466.24 227.937C465.455 228.34 464.573 228.542 463.594 228.542C462.58 228.542 461.677 228.372 460.885 228.031C460.101 227.691 459.483 227.167 459.031 226.458C458.587 225.75 458.365 224.847 458.365 223.75H462.031C462.031 224.264 462.09 224.667 462.208 224.958C462.326 225.243 462.5 225.444 462.729 225.562C462.965 225.674 463.253 225.729 463.594 225.729C463.927 225.729 464.208 225.646 464.437 225.479C464.674 225.306 464.854 225.059 464.979 224.74C465.104 224.413 465.167 224.024 465.167 223.573ZM478.948 224.302C478.948 224.066 478.913 223.854 478.844 223.667C478.774 223.472 478.646 223.292 478.458 223.125C478.271 222.958 478 222.792 477.646 222.625C477.299 222.451 476.84 222.271 476.271 222.083C475.604 221.861 474.962 221.611 474.344 221.333C473.726 221.049 473.174 220.719 472.687 220.344C472.201 219.962 471.816 219.517 471.531 219.01C471.247 218.497 471.104 217.899 471.104 217.219C471.104 216.566 471.25 215.979 471.542 215.458C471.833 214.931 472.24 214.483 472.76 214.115C473.288 213.74 473.906 213.455 474.615 213.26C475.323 213.059 476.097 212.958 476.937 212.958C478.049 212.958 479.028 213.153 479.875 213.542C480.729 213.924 481.396 214.469 481.875 215.177C482.361 215.878 482.604 216.708 482.604 217.667H478.969C478.969 217.285 478.889 216.948 478.729 216.656C478.576 216.365 478.344 216.135 478.031 215.969C477.719 215.802 477.326 215.719 476.854 215.719C476.396 215.719 476.01 215.788 475.698 215.927C475.385 216.066 475.149 216.253 474.99 216.49C474.83 216.719 474.75 216.972 474.75 217.25C474.75 217.479 474.812 217.687 474.937 217.875C475.069 218.056 475.253 218.226 475.49 218.385C475.733 218.545 476.024 218.698 476.365 218.844C476.712 218.99 477.101 219.132 477.531 219.271C478.337 219.528 479.052 219.816 479.677 220.135C480.309 220.448 480.84 220.806 481.271 221.208C481.708 221.604 482.038 222.056 482.26 222.562C482.49 223.069 482.604 223.642 482.604 224.281C482.604 224.962 482.472 225.566 482.208 226.094C481.944 226.622 481.566 227.069 481.073 227.437C480.58 227.799 479.99 228.073 479.302 228.26C478.615 228.448 477.847 228.542 477 228.542C476.222 228.542 475.455 228.444 474.698 228.25C473.948 228.049 473.267 227.743 472.656 227.333C472.045 226.917 471.556 226.385 471.187 225.74C470.826 225.087 470.646 224.312 470.646 223.417H474.312C474.312 223.861 474.372 224.236 474.49 224.542C474.608 224.847 474.781 225.094 475.01 225.281C475.24 225.462 475.521 225.594 475.854 225.677C476.187 225.753 476.569 225.792 477 225.792C477.465 225.792 477.84 225.726 478.125 225.594C478.41 225.455 478.618 225.274 478.75 225.052C478.882 224.823 478.948 224.573 478.948 224.302Z" fill="white"/>
<rect x="571" y="196.333" width="208" height="49.3333" rx="4.66667" fill="#888888" stroke="#888888" stroke-width="4"/>
<path d="M635.313 225.521V228.333H627.229V225.521H635.313ZM628.531 213.167V228.333H624.875V213.167H628.531ZM634.271 219.187V221.906H627.229V219.187H634.271ZM635.344 213.167V215.99H627.229V213.167H635.344ZM640.354 212.333V228.333H636.833V212.333H640.354ZM647.979 228.542C647.063 228.542 646.243 228.399 645.521 228.115C644.799 227.823 644.188 227.424 643.688 226.917C643.194 226.41 642.816 225.826 642.552 225.167C642.295 224.507 642.167 223.809 642.167 223.073V222.677C642.167 221.851 642.281 221.087 642.51 220.385C642.74 219.677 643.08 219.059 643.531 218.531C643.983 218.003 644.549 217.594 645.229 217.302C645.91 217.003 646.701 216.854 647.604 216.854C648.403 216.854 649.118 216.983 649.75 217.24C650.382 217.497 650.917 217.865 651.354 218.344C651.799 218.823 652.135 219.403 652.365 220.083C652.601 220.764 652.719 221.528 652.719 222.375V223.802H643.51V221.604H649.292V221.333C649.299 220.958 649.233 220.639 649.094 220.375C648.962 220.111 648.767 219.91 648.51 219.771C648.253 219.632 647.941 219.562 647.573 219.562C647.191 219.562 646.875 219.646 646.625 219.812C646.382 219.979 646.191 220.208 646.052 220.5C645.92 220.785 645.826 221.115 645.771 221.49C645.715 221.865 645.688 222.26 645.688 222.677V223.073C645.688 223.49 645.743 223.868 645.854 224.208C645.972 224.549 646.139 224.84 646.354 225.083C646.576 225.319 646.84 225.503 647.146 225.635C647.458 225.767 647.813 225.833 648.208 225.833C648.688 225.833 649.16 225.743 649.625 225.562C650.09 225.382 650.49 225.083 650.823 224.667L652.417 226.562C652.188 226.889 651.861 227.205 651.438 227.51C651.021 227.816 650.521 228.066 649.938 228.26C649.354 228.448 648.701 228.542 647.979 228.542ZM658.906 225.833C659.233 225.833 659.51 225.774 659.74 225.656C659.976 225.531 660.153 225.358 660.271 225.135C660.396 224.906 660.455 224.632 660.448 224.312H663.75C663.757 225.16 663.549 225.903 663.125 226.542C662.708 227.174 662.139 227.667 661.417 228.021C660.701 228.368 659.892 228.542 658.99 228.542C658.108 228.542 657.337 228.399 656.677 228.115C656.017 227.823 655.465 227.42 655.021 226.906C654.583 226.385 654.253 225.778 654.031 225.083C653.816 224.389 653.708 223.635 653.708 222.823V222.583C653.708 221.771 653.816 221.017 654.031 220.323C654.253 219.622 654.583 219.014 655.021 218.5C655.465 217.979 656.014 217.576 656.667 217.292C657.326 217 658.094 216.854 658.969 216.854C659.906 216.854 660.733 217.031 661.448 217.385C662.17 217.74 662.736 218.253 663.146 218.927C663.556 219.601 663.757 220.417 663.75 221.375H660.448C660.455 221.035 660.403 220.729 660.292 220.458C660.181 220.187 660.007 219.972 659.771 219.812C659.542 219.646 659.247 219.562 658.885 219.562C658.524 219.562 658.233 219.642 658.01 219.802C657.788 219.962 657.618 220.184 657.5 220.469C657.389 220.747 657.313 221.066 657.271 221.427C657.236 221.788 657.219 222.174 657.219 222.583V222.823C657.219 223.24 657.236 223.632 657.271 224C657.313 224.361 657.392 224.681 657.51 224.958C657.628 225.229 657.799 225.444 658.021 225.604C658.243 225.757 658.538 225.833 658.906 225.833ZM671.188 217.062V219.5H664.396V217.062H671.188ZM665.823 214.26H669.333V224.656C669.333 224.955 669.368 225.187 669.438 225.354C669.507 225.514 669.625 225.628 669.792 225.698C669.965 225.76 670.194 225.792 670.479 225.792C670.681 225.792 670.847 225.788 670.979 225.781C671.111 225.767 671.236 225.75 671.354 225.729V228.24C671.056 228.337 670.743 228.41 670.417 228.458C670.09 228.514 669.743 228.542 669.375 228.542C668.625 228.542 667.983 228.424 667.448 228.187C666.92 227.951 666.517 227.58 666.24 227.073C665.962 226.566 665.823 225.906 665.823 225.094V214.26ZM676.125 219.854V228.333H672.615V217.062H675.896L676.125 219.854ZM679.458 216.979L679.396 220.24C679.257 220.226 679.069 220.208 678.833 220.187C678.597 220.167 678.399 220.156 678.24 220.156C677.83 220.156 677.476 220.205 677.177 220.302C676.885 220.392 676.642 220.531 676.448 220.719C676.26 220.899 676.122 221.128 676.031 221.406C675.948 221.684 675.91 222.007 675.917 222.375L675.281 221.958C675.281 221.201 675.354 220.514 675.5 219.896C675.653 219.271 675.868 218.733 676.146 218.281C676.424 217.823 676.76 217.472 677.156 217.229C677.552 216.979 677.997 216.854 678.49 216.854C678.663 216.854 678.833 216.865 679 216.885C679.174 216.906 679.326 216.937 679.458 216.979ZM679.854 222.812V222.594C679.854 221.767 679.972 221.007 680.208 220.312C680.444 219.611 680.792 219.003 681.25 218.49C681.708 217.976 682.274 217.576 682.948 217.292C683.622 217 684.399 216.854 685.281 216.854C686.17 216.854 686.951 217 687.625 217.292C688.306 217.576 688.875 217.976 689.333 218.49C689.792 219.003 690.139 219.611 690.375 220.312C690.611 221.007 690.729 221.767 690.729 222.594V222.812C690.729 223.632 690.611 224.392 690.375 225.094C690.139 225.788 689.792 226.396 689.333 226.917C688.875 227.431 688.309 227.83 687.635 228.115C686.962 228.399 686.184 228.542 685.302 228.542C684.42 228.542 683.639 228.399 682.958 228.115C682.278 227.83 681.708 227.431 681.25 226.917C680.792 226.396 680.444 225.788 680.208 225.094C679.972 224.392 679.854 223.632 679.854 222.812ZM683.365 222.594V222.812C683.365 223.236 683.396 223.632 683.458 224C683.521 224.368 683.625 224.691 683.771 224.969C683.917 225.24 684.115 225.451 684.365 225.604C684.615 225.757 684.927 225.833 685.302 225.833C685.67 225.833 685.976 225.757 686.219 225.604C686.469 225.451 686.667 225.24 686.813 224.969C686.958 224.691 687.063 224.368 687.125 224C687.188 223.632 687.219 223.236 687.219 222.812V222.594C687.219 222.184 687.188 221.799 687.125 221.437C687.063 221.069 686.958 220.747 686.813 220.469C686.667 220.184 686.469 219.962 686.219 219.802C685.969 219.642 685.656 219.562 685.281 219.562C684.913 219.562 684.604 219.642 684.354 219.802C684.111 219.962 683.917 220.184 683.771 220.469C683.625 220.747 683.521 221.069 683.458 221.437C683.396 221.799 683.365 222.184 683.365 222.594ZM695.74 219.469V228.333H692.229V217.062H695.521L695.74 219.469ZM695.323 222.312L694.5 222.333C694.5 221.472 694.604 220.705 694.813 220.031C695.021 219.351 695.316 218.774 695.698 218.302C696.08 217.83 696.535 217.472 697.063 217.229C697.597 216.979 698.191 216.854 698.844 216.854C699.365 216.854 699.84 216.931 700.271 217.083C700.708 217.236 701.083 217.483 701.396 217.823C701.715 218.163 701.958 218.615 702.125 219.177C702.299 219.733 702.385 220.42 702.385 221.24V228.333H698.854V221.229C698.854 220.778 698.792 220.434 698.667 220.198C698.542 219.955 698.361 219.788 698.125 219.698C697.889 219.608 697.601 219.562 697.26 219.562C696.899 219.562 696.594 219.632 696.344 219.771C696.094 219.91 695.892 220.104 695.74 220.354C695.594 220.597 695.486 220.885 695.417 221.219C695.354 221.552 695.323 221.917 695.323 222.312ZM710.531 223.573V213.167H714.177V223.573C714.177 224.587 713.944 225.465 713.479 226.208C713.021 226.951 712.396 227.528 711.604 227.937C710.819 228.34 709.938 228.542 708.958 228.542C707.944 228.542 707.042 228.372 706.25 228.031C705.465 227.691 704.847 227.167 704.396 226.458C703.951 225.75 703.729 224.847 703.729 223.75H707.396C707.396 224.264 707.455 224.667 707.573 224.958C707.691 225.243 707.865 225.444 708.094 225.562C708.33 225.674 708.618 225.729 708.958 225.729C709.292 225.729 709.573 225.646 709.802 225.479C710.038 225.306 710.219 225.059 710.344 224.74C710.469 224.413 710.531 224.024 710.531 223.573ZM722.24 225.167C722.24 224.972 722.174 224.806 722.042 224.667C721.917 224.521 721.694 224.389 721.375 224.271C721.056 224.146 720.608 224.021 720.031 223.896C719.483 223.778 718.965 223.622 718.479 223.427C718 223.233 717.58 222.997 717.219 222.719C716.858 222.441 716.573 222.111 716.365 221.729C716.163 221.347 716.063 220.91 716.063 220.417C716.063 219.937 716.163 219.486 716.365 219.062C716.573 218.632 716.875 218.253 717.271 217.927C717.674 217.594 718.163 217.333 718.74 217.146C719.316 216.951 719.972 216.854 720.708 216.854C721.722 216.854 722.597 217.01 723.333 217.323C724.069 217.628 724.635 218.059 725.031 218.615C725.434 219.163 725.635 219.799 725.635 220.521H722.125C722.125 220.236 722.076 219.993 721.979 219.792C721.889 219.59 721.74 219.437 721.531 219.333C721.323 219.222 721.045 219.167 720.698 219.167C720.455 219.167 720.233 219.212 720.031 219.302C719.837 219.392 719.681 219.517 719.563 219.677C719.444 219.837 719.385 220.024 719.385 220.24C719.385 220.392 719.42 220.531 719.49 220.656C719.566 220.774 719.681 220.885 719.833 220.99C719.986 221.087 720.181 221.177 720.417 221.26C720.653 221.337 720.938 221.406 721.271 221.469C722.028 221.608 722.736 221.806 723.396 222.062C724.056 222.319 724.59 222.684 725 223.156C725.417 223.628 725.625 224.264 725.625 225.062C725.625 225.562 725.51 226.024 725.281 226.448C725.052 226.865 724.722 227.233 724.292 227.552C723.861 227.865 723.344 228.108 722.74 228.281C722.135 228.455 721.455 228.542 720.698 228.542C719.622 228.542 718.712 228.351 717.969 227.969C717.226 227.58 716.663 227.094 716.281 226.51C715.906 225.92 715.719 225.323 715.719 224.719H718.99C719.003 225.066 719.087 225.351 719.24 225.573C719.399 225.795 719.611 225.958 719.875 226.062C720.139 226.167 720.444 226.219 720.792 226.219C721.111 226.219 721.375 226.174 721.583 226.083C721.799 225.993 721.962 225.872 722.073 225.719C722.184 225.559 722.24 225.375 722.24 225.167Z" fill="white"/>
<rect x="803" y="196.333" width="208" height="49.3333" rx="4.66667" fill="#888888" stroke="#888888" stroke-width="4"/>
<path d="M883.073 225.521V228.333H875.406V225.521H883.073ZM876.708 213.167V228.333H873.052V213.167H876.708ZM890.302 225.5V220.854C890.302 220.535 890.257 220.26 890.167 220.031C890.076 219.802 889.934 219.625 889.74 219.5C889.545 219.368 889.285 219.302 888.958 219.302C888.694 219.302 888.469 219.347 888.281 219.437C888.094 219.528 887.951 219.663 887.854 219.844C887.757 220.024 887.708 220.253 887.708 220.531H884.198C884.198 220.01 884.312 219.528 884.542 219.083C884.778 218.632 885.111 218.24 885.542 217.906C885.979 217.573 886.5 217.316 887.104 217.135C887.715 216.948 888.396 216.854 889.146 216.854C890.042 216.854 890.84 217.003 891.542 217.302C892.25 217.601 892.809 218.049 893.219 218.646C893.628 219.236 893.833 219.979 893.833 220.875V225.49C893.833 226.226 893.875 226.785 893.958 227.167C894.042 227.542 894.16 227.872 894.312 228.156V228.333H890.792C890.625 227.986 890.5 227.562 890.417 227.062C890.34 226.556 890.302 226.035 890.302 225.5ZM890.729 221.448L890.75 223.323H889.198C888.872 223.323 888.594 223.368 888.365 223.458C888.142 223.549 887.962 223.674 887.823 223.833C887.691 223.986 887.594 224.16 887.531 224.354C887.476 224.549 887.448 224.753 887.448 224.969C887.448 225.177 887.497 225.365 887.594 225.531C887.698 225.691 887.837 225.816 888.01 225.906C888.184 225.997 888.378 226.042 888.594 226.042C888.983 226.042 889.312 225.969 889.583 225.823C889.861 225.67 890.073 225.486 890.219 225.271C890.365 225.056 890.437 224.854 890.437 224.667L891.208 226.104C891.069 226.382 890.91 226.663 890.729 226.948C890.556 227.233 890.337 227.497 890.073 227.74C889.816 227.976 889.5 228.17 889.125 228.323C888.75 228.469 888.295 228.542 887.76 228.542C887.066 228.542 886.427 228.399 885.844 228.115C885.267 227.83 884.806 227.434 884.458 226.927C884.111 226.413 883.937 225.823 883.937 225.156C883.937 224.573 884.042 224.052 884.25 223.594C884.465 223.135 884.788 222.747 885.219 222.427C885.649 222.108 886.198 221.865 886.865 221.698C887.531 221.531 888.316 221.448 889.219 221.448H890.729ZM899.323 219.854V228.333H895.812V217.062H899.094L899.323 219.854ZM902.656 216.979L902.594 220.24C902.455 220.226 902.267 220.208 902.031 220.187C901.795 220.167 901.597 220.156 901.437 220.156C901.028 220.156 900.674 220.205 900.375 220.302C900.083 220.392 899.84 220.531 899.646 220.719C899.458 220.899 899.319 221.128 899.229 221.406C899.146 221.684 899.108 222.007 899.115 222.375L898.479 221.958C898.479 221.201 898.552 220.514 898.698 219.896C898.851 219.271 899.066 218.733 899.344 218.281C899.622 217.823 899.958 217.472 900.354 217.229C900.75 216.979 901.194 216.854 901.687 216.854C901.861 216.854 902.031 216.865 902.198 216.885C902.372 216.906 902.524 216.937 902.656 216.979ZM909.406 225.5V220.854C909.406 220.535 909.361 220.26 909.271 220.031C909.181 219.802 909.038 219.625 908.844 219.5C908.649 219.368 908.389 219.302 908.063 219.302C907.799 219.302 907.573 219.347 907.385 219.437C907.198 219.528 907.056 219.663 906.958 219.844C906.861 220.024 906.813 220.253 906.813 220.531H903.302C903.302 220.01 903.417 219.528 903.646 219.083C903.882 218.632 904.215 218.24 904.646 217.906C905.083 217.573 905.604 217.316 906.208 217.135C906.819 216.948 907.5 216.854 908.25 216.854C909.146 216.854 909.944 217.003 910.646 217.302C911.354 217.601 911.913 218.049 912.323 218.646C912.733 219.236 912.938 219.979 912.938 220.875V225.49C912.938 226.226 912.979 226.785 913.063 227.167C913.146 227.542 913.264 227.872 913.417 228.156V228.333H909.896C909.729 227.986 909.604 227.562 909.521 227.062C909.444 226.556 909.406 226.035 909.406 225.5ZM909.833 221.448L909.854 223.323H908.302C907.976 223.323 907.698 223.368 907.469 223.458C907.247 223.549 907.066 223.674 906.927 223.833C906.795 223.986 906.698 224.16 906.635 224.354C906.58 224.549 906.552 224.753 906.552 224.969C906.552 225.177 906.601 225.365 906.698 225.531C906.802 225.691 906.941 225.816 907.115 225.906C907.288 225.997 907.483 226.042 907.698 226.042C908.087 226.042 908.417 225.969 908.688 225.823C908.965 225.67 909.177 225.486 909.323 225.271C909.469 225.056 909.542 224.854 909.542 224.667L910.313 226.104C910.174 226.382 910.014 226.663 909.833 226.948C909.66 227.233 909.441 227.497 909.177 227.74C908.92 227.976 908.604 228.17 908.229 228.323C907.854 228.469 907.399 228.542 906.865 228.542C906.17 228.542 905.531 228.399 904.948 228.115C904.372 227.83 903.91 227.434 903.563 226.927C903.215 226.413 903.042 225.823 903.042 225.156C903.042 224.573 903.146 224.052 903.354 223.594C903.569 223.135 903.892 222.747 904.323 222.427C904.753 222.108 905.302 221.865 905.969 221.698C906.635 221.531 907.42 221.448 908.323 221.448H909.833ZM918.781 225.927L921 217.062H924.698L921.01 228.333H918.823L918.781 225.927ZM917.469 217.062L919.656 225.927L919.635 228.333H917.437L913.76 217.062H917.469ZM931.052 228.542C930.135 228.542 929.316 228.399 928.594 228.115C927.872 227.823 927.26 227.424 926.76 226.917C926.267 226.41 925.889 225.826 925.625 225.167C925.368 224.507 925.24 223.809 925.24 223.073V222.677C925.24 221.851 925.354 221.087 925.583 220.385C925.812 219.677 926.153 219.059 926.604 218.531C927.056 218.003 927.622 217.594 928.302 217.302C928.983 217.003 929.774 216.854 930.677 216.854C931.476 216.854 932.191 216.983 932.823 217.24C933.455 217.497 933.99 217.865 934.427 218.344C934.872 218.823 935.208 219.403 935.437 220.083C935.674 220.764 935.792 221.528 935.792 222.375V223.802H926.583V221.604H932.365V221.333C932.372 220.958 932.306 220.639 932.167 220.375C932.035 220.111 931.84 219.91 931.583 219.771C931.326 219.632 931.014 219.562 930.646 219.562C930.264 219.562 929.948 219.646 929.698 219.812C929.455 219.979 929.264 220.208 929.125 220.5C928.993 220.785 928.899 221.115 928.844 221.49C928.788 221.865 928.76 222.26 928.76 222.677V223.073C928.76 223.49 928.816 223.868 928.927 224.208C929.045 224.549 929.212 224.84 929.427 225.083C929.649 225.319 929.913 225.503 930.219 225.635C930.531 225.767 930.885 225.833 931.281 225.833C931.76 225.833 932.233 225.743 932.698 225.562C933.163 225.382 933.562 225.083 933.896 224.667L935.49 226.562C935.26 226.889 934.934 227.205 934.51 227.51C934.094 227.816 933.594 228.066 933.01 228.26C932.427 228.448 931.774 228.542 931.052 228.542ZM940.927 212.333V228.333H937.406V212.333H940.927Z" fill="white"/>
</svg>
