<svg width="1363" height="167" viewBox="0 0 1363 167" fill="none" xmlns="http://www.w3.org/2000/svg">
<rect width="1363" height="167" rx="15" fill="#F0F0F0"/>
<path d="M0 15C0 6.71573 6.71573 0 15 0H37V167H15C6.71573 167 0 160.284 0 152V15Z" fill="#424241"/>
<path d="M100.906 50.9219L93.3945 48.2383V45.0859L103.602 49.375V51.6367L100.906 50.9219ZM93.3945 53.1719L100.918 50.4297L103.602 49.7852V52.0352L93.3945 56.3242V53.1719ZM125.914 49.0703V49.8789C125.914 51.1758 125.738 52.3398 125.387 53.3711C125.035 54.4023 124.539 55.2812 123.898 56.0078C123.258 56.7266 122.492 57.2773 121.602 57.6602C120.719 58.043 119.738 58.2344 118.66 58.2344C117.59 58.2344 116.609 58.043 115.719 57.6602C114.836 57.2773 114.07 56.7266 113.422 56.0078C112.773 55.2812 112.27 54.4023 111.91 53.3711C111.559 52.3398 111.383 51.1758 111.383 49.8789V49.0703C111.383 47.7656 111.559 46.6016 111.91 45.5781C112.262 44.5469 112.758 43.668 113.398 42.9414C114.047 42.2148 114.812 41.6602 115.695 41.2773C116.586 40.8945 117.566 40.7031 118.637 40.7031C119.715 40.7031 120.695 40.8945 121.578 41.2773C122.469 41.6602 123.234 42.2148 123.875 42.9414C124.523 43.668 125.023 44.5469 125.375 45.5781C125.734 46.6016 125.914 47.7656 125.914 49.0703ZM122.363 49.8789V49.0469C122.363 48.1406 122.281 47.3438 122.117 46.6562C121.953 45.9688 121.711 45.3906 121.391 44.9219C121.07 44.4531 120.68 44.1016 120.219 43.8672C119.758 43.625 119.23 43.5039 118.637 43.5039C118.043 43.5039 117.516 43.625 117.055 43.8672C116.602 44.1016 116.215 44.4531 115.895 44.9219C115.582 45.3906 115.344 45.9688 115.18 46.6562C115.016 47.3438 114.934 48.1406 114.934 49.0469V49.8789C114.934 50.7773 115.016 51.5742 115.18 52.2695C115.344 52.957 115.586 53.5391 115.906 54.0156C116.227 54.4844 116.617 54.8398 117.078 55.082C117.539 55.3242 118.066 55.4453 118.66 55.4453C119.254 55.4453 119.781 55.3242 120.242 55.082C120.703 54.8398 121.09 54.4844 121.402 54.0156C121.715 53.5391 121.953 52.957 122.117 52.2695C122.281 51.5742 122.363 50.7773 122.363 49.8789ZM131.539 48.0273V58H128.164V45.3203H131.328L131.539 48.0273ZM131.047 51.2148H130.133C130.133 50.2773 130.254 49.4336 130.496 48.6836C130.738 47.9258 131.078 47.2812 131.516 46.75C131.953 46.2109 132.473 45.8008 133.074 45.5195C133.684 45.2305 134.363 45.0859 135.113 45.0859C135.707 45.0859 136.25 45.1719 136.742 45.3438C137.234 45.5156 137.656 45.7891 138.008 46.1641C138.367 46.5391 138.641 47.0352 138.828 47.6523C139.023 48.2695 139.121 49.0234 139.121 49.9141V58H135.723V49.9023C135.723 49.3398 135.645 48.9023 135.488 48.5898C135.332 48.2773 135.102 48.0586 134.797 47.9336C134.5 47.8008 134.133 47.7344 133.695 47.7344C133.242 47.7344 132.848 47.8242 132.512 48.0039C132.184 48.1836 131.91 48.4336 131.691 48.7539C131.48 49.0664 131.32 49.4336 131.211 49.8555C131.102 50.2773 131.047 50.7305 131.047 51.2148ZM150.219 40.9375L153.781 48.7188L157.344 40.9375H161.176L155.562 51.7891V58H152V51.7891L146.375 40.9375H150.219ZM161.211 51.7891V51.543C161.211 50.6133 161.344 49.7578 161.609 48.9766C161.875 48.1875 162.262 47.5039 162.77 46.9258C163.277 46.3477 163.902 45.8984 164.645 45.5781C165.387 45.25 166.238 45.0859 167.199 45.0859C168.16 45.0859 169.016 45.25 169.766 45.5781C170.516 45.8984 171.145 46.3477 171.652 46.9258C172.168 47.5039 172.559 48.1875 172.824 48.9766C173.09 49.7578 173.223 50.6133 173.223 51.543V51.7891C173.223 52.7109 173.09 53.5664 172.824 54.3555C172.559 55.1367 172.168 55.8203 171.652 56.4062C171.145 56.9844 170.52 57.4336 169.777 57.7539C169.035 58.0742 168.184 58.2344 167.223 58.2344C166.262 58.2344 165.406 58.0742 164.656 57.7539C163.914 57.4336 163.285 56.9844 162.77 56.4062C162.262 55.8203 161.875 55.1367 161.609 54.3555C161.344 53.5664 161.211 52.7109 161.211 51.7891ZM164.586 51.543V51.7891C164.586 52.3203 164.633 52.8164 164.727 53.2773C164.82 53.7383 164.969 54.1445 165.172 54.4961C165.383 54.8398 165.656 55.1094 165.992 55.3047C166.328 55.5 166.738 55.5977 167.223 55.5977C167.691 55.5977 168.094 55.5 168.43 55.3047C168.766 55.1094 169.035 54.8398 169.238 54.4961C169.441 54.1445 169.59 53.7383 169.684 53.2773C169.785 52.8164 169.836 52.3203 169.836 51.7891V51.543C169.836 51.0273 169.785 50.543 169.684 50.0898C169.59 49.6289 169.438 49.2227 169.227 48.8711C169.023 48.5117 168.754 48.2305 168.418 48.0273C168.082 47.8242 167.676 47.7227 167.199 47.7227C166.723 47.7227 166.316 47.8242 165.98 48.0273C165.652 48.2305 165.383 48.5117 165.172 48.8711C164.969 49.2227 164.82 49.6289 164.727 50.0898C164.633 50.543 164.586 51.0273 164.586 51.543ZM182.797 54.9648V45.3203H186.172V58H182.996L182.797 54.9648ZM183.172 52.3633L184.168 52.3398C184.168 53.1836 184.07 53.9688 183.875 54.6953C183.68 55.4141 183.387 56.0391 182.996 56.5703C182.605 57.0938 182.113 57.5039 181.52 57.8008C180.926 58.0898 180.227 58.2344 179.422 58.2344C178.805 58.2344 178.234 58.1484 177.711 57.9766C177.195 57.7969 176.75 57.5195 176.375 57.1445C176.008 56.7617 175.719 56.2734 175.508 55.6797C175.305 55.0781 175.203 54.3555 175.203 53.5117V45.3203H178.578V53.5352C178.578 53.9102 178.621 54.2266 178.707 54.4844C178.801 54.7422 178.93 54.9531 179.094 55.1172C179.258 55.2812 179.449 55.3984 179.668 55.4688C179.895 55.5391 180.145 55.5742 180.418 55.5742C181.113 55.5742 181.66 55.4336 182.059 55.1523C182.465 54.8711 182.75 54.4883 182.914 54.0039C183.086 53.5117 183.172 52.9648 183.172 52.3633ZM192.125 48.0859V58H188.75V45.3203H191.926L192.125 48.0859ZM195.945 45.2383L195.887 48.3672C195.723 48.3438 195.523 48.3242 195.289 48.3086C195.062 48.2852 194.855 48.2734 194.668 48.2734C194.191 48.2734 193.777 48.3359 193.426 48.4609C193.082 48.5781 192.793 48.7539 192.559 48.9883C192.332 49.2227 192.16 49.5078 192.043 49.8438C191.934 50.1797 191.871 50.5625 191.855 50.9922L191.176 50.7812C191.176 49.9609 191.258 49.207 191.422 48.5195C191.586 47.8242 191.824 47.2188 192.137 46.7031C192.457 46.1875 192.848 45.7891 193.309 45.5078C193.77 45.2266 194.297 45.0859 194.891 45.0859C195.078 45.0859 195.27 45.1016 195.465 45.1328C195.66 45.1562 195.82 45.1914 195.945 45.2383ZM207.84 55.293L211.238 40.9375H213.137L213.57 43.3281L209.949 58H207.91L207.84 55.293ZM206.094 40.9375L208.906 55.293L208.672 58H206.398L202.613 40.9375H206.094ZM216.559 55.2344L219.336 40.9375H222.816L219.043 58H216.77L216.559 55.2344ZM214.203 40.9375L217.625 55.3516L217.531 58H215.492L211.848 43.3164L212.316 40.9375H214.203ZM230.961 55.1406V49.4922C230.961 49.0859 230.895 48.7383 230.762 48.4492C230.629 48.1523 230.422 47.9219 230.141 47.7578C229.867 47.5938 229.512 47.5117 229.074 47.5117C228.699 47.5117 228.375 47.5781 228.102 47.7109C227.828 47.8359 227.617 48.0195 227.469 48.2617C227.32 48.4961 227.246 48.7734 227.246 49.0938H223.871C223.871 48.5547 223.996 48.043 224.246 47.5586C224.496 47.0742 224.859 46.6484 225.336 46.2812C225.812 45.9062 226.379 45.6133 227.035 45.4023C227.699 45.1914 228.441 45.0859 229.262 45.0859C230.246 45.0859 231.121 45.25 231.887 45.5781C232.652 45.9062 233.254 46.3984 233.691 47.0547C234.137 47.7109 234.359 48.5312 234.359 49.5156V54.9414C234.359 55.6367 234.402 56.207 234.488 56.6523C234.574 57.0898 234.699 57.4727 234.863 57.8008V58H231.453C231.289 57.6562 231.164 57.2266 231.078 56.7109C231 56.1875 230.961 55.6641 230.961 55.1406ZM231.406 50.2773L231.43 52.1875H229.543C229.098 52.1875 228.711 52.2383 228.383 52.3398C228.055 52.4414 227.785 52.5859 227.574 52.7734C227.363 52.9531 227.207 53.1641 227.105 53.4062C227.012 53.6484 226.965 53.9141 226.965 54.2031C226.965 54.4922 227.031 54.7539 227.164 54.9883C227.297 55.2148 227.488 55.3945 227.738 55.5273C227.988 55.6523 228.281 55.7148 228.617 55.7148C229.125 55.7148 229.566 55.6133 229.941 55.4102C230.316 55.207 230.605 54.957 230.809 54.6602C231.02 54.3633 231.129 54.082 231.137 53.8164L232.027 55.2461C231.902 55.5664 231.73 55.8984 231.512 56.2422C231.301 56.5859 231.031 56.9102 230.703 57.2148C230.375 57.5117 229.98 57.7578 229.52 57.9531C229.059 58.1406 228.512 58.2344 227.879 58.2344C227.074 58.2344 226.344 58.0742 225.688 57.7539C225.039 57.4258 224.523 56.9766 224.141 56.4062C223.766 55.8281 223.578 55.1719 223.578 54.4375C223.578 53.7734 223.703 53.1836 223.953 52.668C224.203 52.1523 224.57 51.7188 225.055 51.3672C225.547 51.0078 226.16 50.7383 226.895 50.5586C227.629 50.3711 228.48 50.2773 229.449 50.2773H231.406ZM240.535 56.5703L243.898 45.3203H247.52L242.422 59.9102C242.312 60.2305 242.164 60.5742 241.977 60.9414C241.797 61.3086 241.551 61.6562 241.238 61.9844C240.934 62.3203 240.547 62.5938 240.078 62.8047C239.617 63.0156 239.051 63.1211 238.379 63.1211C238.059 63.1211 237.797 63.1016 237.594 63.0625C237.391 63.0234 237.148 62.9688 236.867 62.8984V60.4258C236.953 60.4258 237.043 60.4258 237.137 60.4258C237.23 60.4336 237.32 60.4375 237.406 60.4375C237.852 60.4375 238.215 60.3867 238.496 60.2852C238.777 60.1836 239.004 60.0273 239.176 59.8164C239.348 59.6133 239.484 59.3477 239.586 59.0195L240.535 56.5703ZM239.129 45.3203L241.883 54.5078L242.363 58.082L240.066 58.3281L235.508 45.3203H239.129Z" fill="#888888"/>
<path d="M102.635 86.0078V118H94.9443V86.0078H102.635ZM115.181 99.2573V118H107.776V94.2256H114.72L115.181 99.2573ZM114.28 105.3L112.588 105.344C112.588 103.674 112.786 102.136 113.182 100.729C113.577 99.3232 114.163 98.1001 114.939 97.0601C115.716 96.02 116.668 95.2144 117.796 94.6431C118.938 94.0718 120.257 93.7861 121.751 93.7861C122.791 93.7861 123.736 93.9473 124.585 94.2695C125.435 94.5771 126.167 95.0679 126.783 95.7417C127.398 96.4009 127.867 97.2651 128.189 98.3345C128.526 99.3892 128.694 100.656 128.694 102.136V118H121.29V103.081C121.29 102.07 121.172 101.308 120.938 100.795C120.718 100.283 120.396 99.9385 119.971 99.7627C119.546 99.5869 119.026 99.499 118.411 99.499C117.767 99.499 117.188 99.6455 116.675 99.9385C116.163 100.231 115.723 100.642 115.357 101.169C115.005 101.682 114.734 102.29 114.544 102.993C114.368 103.696 114.28 104.465 114.28 105.3ZM127.859 105.3L125.794 105.344C125.794 103.674 125.977 102.136 126.343 100.729C126.724 99.3232 127.288 98.1001 128.035 97.0601C128.797 96.02 129.742 95.2144 130.87 94.6431C131.998 94.0718 133.309 93.7861 134.803 93.7861C135.887 93.7861 136.883 93.9473 137.791 94.2695C138.699 94.5918 139.483 95.1118 140.142 95.8296C140.801 96.5474 141.314 97.4995 141.68 98.686C142.046 99.8579 142.229 101.308 142.229 103.037V118H134.803V103.037C134.803 102.055 134.686 101.315 134.451 100.817C134.231 100.305 133.909 99.9604 133.484 99.7847C133.06 99.5942 132.554 99.499 131.968 99.499C131.265 99.499 130.657 99.6455 130.145 99.9385C129.632 100.231 129.2 100.642 128.848 101.169C128.511 101.682 128.262 102.29 128.101 102.993C127.94 103.696 127.859 104.465 127.859 105.3ZM153.941 98.7959V127.141H146.536V94.2256H153.436L153.941 98.7959ZM168.531 105.827V106.289C168.531 108.017 168.333 109.621 167.938 111.101C167.542 112.58 166.956 113.869 166.18 114.968C165.403 116.066 164.437 116.923 163.279 117.539C162.137 118.139 160.811 118.439 159.302 118.439C157.881 118.439 156.658 118.125 155.633 117.495C154.607 116.865 153.75 115.993 153.062 114.88C152.374 113.767 151.817 112.492 151.392 111.057C150.967 109.621 150.63 108.105 150.381 106.508V105.915C150.63 104.201 150.967 102.612 151.392 101.147C151.817 99.6675 152.374 98.3784 153.062 97.2798C153.75 96.1812 154.6 95.3242 155.611 94.709C156.636 94.0938 157.859 93.7861 159.28 93.7861C160.789 93.7861 162.115 94.0718 163.257 94.6431C164.415 95.2144 165.381 96.0347 166.158 97.104C166.949 98.1587 167.542 99.4258 167.938 100.905C168.333 102.385 168.531 104.025 168.531 105.827ZM161.126 106.289V105.827C161.126 104.904 161.06 104.062 160.928 103.3C160.796 102.524 160.584 101.85 160.291 101.279C160.013 100.708 159.639 100.268 159.17 99.9604C158.702 99.6528 158.123 99.499 157.435 99.499C156.644 99.499 155.977 99.6235 155.435 99.8726C154.908 100.107 154.483 100.473 154.161 100.971C153.853 101.455 153.633 102.062 153.501 102.795C153.384 103.513 153.333 104.355 153.348 105.322V107.124C153.318 108.237 153.428 109.218 153.677 110.068C153.926 110.903 154.358 111.555 154.974 112.023C155.589 112.492 156.424 112.727 157.479 112.727C158.182 112.727 158.768 112.565 159.236 112.243C159.705 111.906 160.079 111.445 160.357 110.859C160.635 110.258 160.833 109.57 160.95 108.793C161.067 108.017 161.126 107.182 161.126 106.289ZM179.649 84.25V118H172.222V84.25H179.649ZM195.733 118.439C193.799 118.439 192.071 118.139 190.547 117.539C189.024 116.923 187.735 116.081 186.68 115.012C185.64 113.942 184.842 112.712 184.285 111.32C183.743 109.929 183.472 108.457 183.472 106.904V106.069C183.472 104.326 183.714 102.714 184.197 101.235C184.681 99.7407 185.398 98.437 186.351 97.3237C187.303 96.2104 188.497 95.3462 189.932 94.731C191.368 94.1011 193.038 93.7861 194.942 93.7861C196.626 93.7861 198.135 94.0571 199.468 94.5991C200.801 95.1411 201.929 95.9175 202.852 96.9282C203.79 97.939 204.5 99.1621 204.983 100.598C205.481 102.033 205.73 103.645 205.73 105.432V108.442H186.307V103.806H198.501V103.234C198.516 102.443 198.377 101.77 198.084 101.213C197.806 100.656 197.396 100.231 196.854 99.9385C196.312 99.6455 195.652 99.499 194.876 99.499C194.07 99.499 193.404 99.6748 192.876 100.026C192.364 100.378 191.961 100.861 191.668 101.477C191.39 102.077 191.192 102.773 191.075 103.564C190.958 104.355 190.899 105.19 190.899 106.069V106.904C190.899 107.783 191.016 108.581 191.25 109.299C191.5 110.017 191.851 110.632 192.305 111.145C192.774 111.643 193.331 112.031 193.975 112.309C194.634 112.587 195.381 112.727 196.216 112.727C197.227 112.727 198.223 112.536 199.205 112.155C200.186 111.774 201.028 111.145 201.731 110.266L205.093 114.265C204.61 114.953 203.921 115.62 203.028 116.264C202.149 116.909 201.094 117.436 199.864 117.846C198.633 118.242 197.256 118.439 195.733 118.439ZM216.211 99.2573V118H208.807V94.2256H215.75L216.211 99.2573ZM215.311 105.3L213.619 105.344C213.619 103.674 213.816 102.136 214.212 100.729C214.607 99.3232 215.193 98.1001 215.97 97.0601C216.746 96.02 217.698 95.2144 218.826 94.6431C219.969 94.0718 221.287 93.7861 222.781 93.7861C223.821 93.7861 224.766 93.9473 225.616 94.2695C226.465 94.5771 227.198 95.0679 227.813 95.7417C228.428 96.4009 228.897 97.2651 229.219 98.3345C229.556 99.3892 229.725 100.656 229.725 102.136V118H222.32V103.081C222.32 102.07 222.203 101.308 221.968 100.795C221.749 100.283 221.426 99.9385 221.001 99.7627C220.577 99.5869 220.057 99.499 219.441 99.499C218.797 99.499 218.218 99.6455 217.706 99.9385C217.193 100.231 216.753 100.642 216.387 101.169C216.036 101.682 215.765 102.29 215.574 102.993C215.398 103.696 215.311 104.465 215.311 105.3ZM228.89 105.3L226.824 105.344C226.824 103.674 227.007 102.136 227.374 100.729C227.754 99.3232 228.318 98.1001 229.065 97.0601C229.827 96.02 230.772 95.2144 231.9 94.6431C233.028 94.0718 234.339 93.7861 235.833 93.7861C236.917 93.7861 237.913 93.9473 238.821 94.2695C239.729 94.5918 240.513 95.1118 241.172 95.8296C241.832 96.5474 242.344 97.4995 242.71 98.686C243.077 99.8579 243.26 101.308 243.26 103.037V118H235.833V103.037C235.833 102.055 235.716 101.315 235.481 100.817C235.262 100.305 234.939 99.9604 234.515 99.7847C234.09 99.5942 233.584 99.499 232.999 99.499C232.295 99.499 231.688 99.6455 231.175 99.9385C230.662 100.231 230.23 100.642 229.878 101.169C229.542 101.682 229.292 102.29 229.131 102.993C228.97 103.696 228.89 104.465 228.89 105.3ZM259.014 118.439C257.081 118.439 255.352 118.139 253.829 117.539C252.305 116.923 251.016 116.081 249.961 115.012C248.921 113.942 248.123 112.712 247.566 111.32C247.024 109.929 246.753 108.457 246.753 106.904V106.069C246.753 104.326 246.995 102.714 247.479 101.235C247.962 99.7407 248.68 98.437 249.632 97.3237C250.584 96.2104 251.778 95.3462 253.213 94.731C254.649 94.1011 256.319 93.7861 258.223 93.7861C259.908 93.7861 261.417 94.0571 262.75 94.5991C264.083 95.1411 265.21 95.9175 266.133 96.9282C267.071 97.939 267.781 99.1621 268.265 100.598C268.763 102.033 269.012 103.645 269.012 105.432V108.442H249.588V103.806H261.783V103.234C261.797 102.443 261.658 101.77 261.365 101.213C261.087 100.656 260.677 100.231 260.135 99.9385C259.593 99.6455 258.934 99.499 258.157 99.499C257.352 99.499 256.685 99.6748 256.158 100.026C255.645 100.378 255.242 100.861 254.949 101.477C254.671 102.077 254.473 102.773 254.356 103.564C254.239 104.355 254.18 105.19 254.18 106.069V106.904C254.18 107.783 254.297 108.581 254.532 109.299C254.781 110.017 255.132 110.632 255.586 111.145C256.055 111.643 256.612 112.031 257.256 112.309C257.916 112.587 258.663 112.727 259.498 112.727C260.508 112.727 261.504 112.536 262.486 112.155C263.467 111.774 264.31 111.145 265.013 110.266L268.375 114.265C267.891 114.953 267.203 115.62 266.309 116.264C265.43 116.909 264.375 117.436 263.145 117.846C261.915 118.242 260.538 118.439 259.014 118.439ZM279.295 99.3013V118H271.89V94.2256H278.833L279.295 99.3013ZM278.416 105.3L276.68 105.344C276.68 103.527 276.9 101.909 277.339 100.488C277.779 99.0522 278.401 97.8364 279.207 96.8403C280.013 95.8442 280.972 95.0898 282.085 94.5771C283.213 94.0498 284.466 93.7861 285.843 93.7861C286.941 93.7861 287.945 93.9473 288.853 94.2695C289.776 94.5918 290.567 95.1118 291.226 95.8296C291.9 96.5474 292.413 97.4995 292.764 98.686C293.13 99.8579 293.313 101.308 293.313 103.037V118H285.865V103.015C285.865 102.062 285.733 101.337 285.469 100.839C285.206 100.327 284.825 99.9751 284.327 99.7847C283.829 99.5942 283.221 99.499 282.503 99.499C281.741 99.499 281.097 99.6455 280.569 99.9385C280.042 100.231 279.617 100.642 279.295 101.169C278.987 101.682 278.76 102.29 278.614 102.993C278.482 103.696 278.416 104.465 278.416 105.3ZM309.947 94.2256V99.3672H295.621V94.2256H309.947ZM298.631 88.3149H306.036V110.244C306.036 110.874 306.109 111.364 306.255 111.716C306.402 112.053 306.651 112.294 307.002 112.441C307.369 112.573 307.852 112.639 308.453 112.639C308.877 112.639 309.229 112.631 309.507 112.617C309.786 112.587 310.049 112.551 310.298 112.507V117.802C309.668 118.007 309.009 118.161 308.321 118.264C307.632 118.381 306.9 118.439 306.124 118.439C304.542 118.439 303.187 118.19 302.059 117.692C300.945 117.194 300.096 116.411 299.51 115.341C298.924 114.272 298.631 112.88 298.631 111.167V88.3149ZM325.24 112.023V102.224C325.24 101.55 325.145 100.971 324.954 100.488C324.764 100.004 324.463 99.6309 324.053 99.3672C323.643 99.0889 323.094 98.9497 322.405 98.9497C321.849 98.9497 321.373 99.0449 320.977 99.2354C320.582 99.4258 320.281 99.7114 320.076 100.092C319.871 100.473 319.769 100.957 319.769 101.542H312.364C312.364 100.444 312.605 99.4258 313.089 98.4883C313.587 97.5361 314.29 96.7085 315.198 96.0054C316.121 95.3022 317.22 94.7603 318.494 94.3794C319.783 93.9839 321.219 93.7861 322.801 93.7861C324.69 93.7861 326.375 94.1011 327.854 94.731C329.349 95.3608 330.528 96.3057 331.392 97.5654C332.256 98.8105 332.688 100.378 332.688 102.268V112.001C332.688 113.554 332.776 114.733 332.952 115.539C333.128 116.33 333.377 117.026 333.699 117.626V118H326.272C325.921 117.268 325.657 116.374 325.481 115.319C325.32 114.25 325.24 113.151 325.24 112.023ZM326.141 103.476L326.185 107.431H322.911C322.222 107.431 321.636 107.526 321.153 107.717C320.684 107.907 320.303 108.171 320.01 108.508C319.732 108.83 319.527 109.196 319.395 109.606C319.278 110.017 319.219 110.449 319.219 110.903C319.219 111.342 319.322 111.738 319.527 112.089C319.747 112.426 320.04 112.69 320.406 112.88C320.772 113.071 321.182 113.166 321.636 113.166C322.457 113.166 323.152 113.012 323.724 112.705C324.31 112.382 324.756 111.994 325.064 111.54C325.372 111.086 325.525 110.661 325.525 110.266L327.151 113.298C326.858 113.884 326.521 114.477 326.141 115.078C325.774 115.678 325.313 116.235 324.756 116.748C324.214 117.246 323.548 117.656 322.757 117.978C321.966 118.286 321.006 118.439 319.878 118.439C318.414 118.439 317.066 118.139 315.835 117.539C314.62 116.938 313.646 116.103 312.913 115.034C312.181 113.95 311.814 112.705 311.814 111.298C311.814 110.068 312.034 108.969 312.474 108.002C312.928 107.036 313.609 106.215 314.517 105.542C315.425 104.868 316.583 104.355 317.989 104.003C319.395 103.652 321.05 103.476 322.955 103.476H326.141ZM349.322 94.2256V99.3672H334.996V94.2256H349.322ZM338.006 88.3149H345.411V110.244C345.411 110.874 345.484 111.364 345.63 111.716C345.777 112.053 346.026 112.294 346.377 112.441C346.744 112.573 347.227 112.639 347.828 112.639C348.252 112.639 348.604 112.631 348.882 112.617C349.161 112.587 349.424 112.551 349.673 112.507V117.802C349.043 118.007 348.384 118.161 347.696 118.264C347.007 118.381 346.275 118.439 345.499 118.439C343.917 118.439 342.562 118.19 341.434 117.692C340.32 117.194 339.471 116.411 338.885 115.341C338.299 114.272 338.006 112.88 338.006 111.167V88.3149ZM360.088 94.2256V118H352.662V94.2256H360.088ZM352.222 88.0952C352.222 87.0405 352.603 86.1763 353.365 85.5024C354.126 84.8286 355.115 84.4917 356.331 84.4917C357.547 84.4917 358.536 84.8286 359.297 85.5024C360.059 86.1763 360.44 87.0405 360.44 88.0952C360.44 89.1499 360.059 90.0142 359.297 90.688C358.536 91.3618 357.547 91.6987 356.331 91.6987C355.115 91.6987 354.126 91.3618 353.365 90.688C352.603 90.0142 352.222 89.1499 352.222 88.0952ZM363.736 106.354V105.893C363.736 104.15 363.985 102.546 364.483 101.081C364.981 99.6016 365.713 98.3198 366.68 97.2358C367.647 96.1519 368.841 95.3096 370.262 94.709C371.683 94.0938 373.323 93.7861 375.184 93.7861C377.059 93.7861 378.707 94.0938 380.127 94.709C381.563 95.3096 382.764 96.1519 383.731 97.2358C384.698 98.3198 385.43 99.6016 385.928 101.081C386.426 102.546 386.675 104.15 386.675 105.893V106.354C386.675 108.083 386.426 109.687 385.928 111.167C385.43 112.631 384.698 113.913 383.731 115.012C382.764 116.096 381.57 116.938 380.149 117.539C378.729 118.139 377.088 118.439 375.228 118.439C373.367 118.439 371.719 118.139 370.284 117.539C368.848 116.938 367.647 116.096 366.68 115.012C365.713 113.913 364.981 112.631 364.483 111.167C363.985 109.687 363.736 108.083 363.736 106.354ZM371.141 105.893V106.354C371.141 107.248 371.207 108.083 371.338 108.859C371.47 109.636 371.69 110.317 371.998 110.903C372.305 111.474 372.723 111.921 373.25 112.243C373.777 112.565 374.437 112.727 375.228 112.727C376.004 112.727 376.648 112.565 377.161 112.243C377.688 111.921 378.106 111.474 378.414 110.903C378.721 110.317 378.941 109.636 379.073 108.859C379.205 108.083 379.271 107.248 379.271 106.354V105.893C379.271 105.029 379.205 104.216 379.073 103.454C378.941 102.678 378.721 101.997 378.414 101.411C378.106 100.81 377.688 100.341 377.161 100.004C376.634 99.6675 375.975 99.499 375.184 99.499C374.407 99.499 373.755 99.6675 373.228 100.004C372.715 100.341 372.305 100.81 371.998 101.411C371.69 101.997 371.47 102.678 371.338 103.454C371.207 104.216 371.141 105.029 371.141 105.893ZM397.244 99.3013V118H389.839V94.2256H396.783L397.244 99.3013ZM396.365 105.3L394.629 105.344C394.629 103.527 394.849 101.909 395.289 100.488C395.728 99.0522 396.351 97.8364 397.156 96.8403C397.962 95.8442 398.921 95.0898 400.035 94.5771C401.163 94.0498 402.415 93.7861 403.792 93.7861C404.891 93.7861 405.894 93.9473 406.802 94.2695C407.725 94.5918 408.516 95.1118 409.175 95.8296C409.849 96.5474 410.362 97.4995 410.713 98.686C411.08 99.8579 411.263 101.308 411.263 103.037V118H403.814V103.015C403.814 102.062 403.682 101.337 403.418 100.839C403.155 100.327 402.774 99.9751 402.276 99.7847C401.778 99.5942 401.17 99.499 400.452 99.499C399.69 99.499 399.046 99.6455 398.519 99.9385C397.991 100.231 397.566 100.642 397.244 101.169C396.937 101.682 396.709 102.29 396.563 102.993C396.431 103.696 396.365 104.465 396.365 105.3Z" fill="#424241"/>
<path d="M1363 15C1363 6.71573 1356.28 0 1348 0H1134V167H1348C1356.28 167 1363 160.284 1363 152V15Z" fill="#FFC700"/>
<path d="M1281.5 49H1216.5L1214 51.5V116.5L1216.5 119H1281.5L1284 116.5V51.5L1281.5 49ZM1279 114H1234V104H1245.5C1247 107 1250.5 109 1254 109C1259.5 109 1264 104.5 1264 99C1264 93.5 1259.5 89 1254 89C1248.5 89 1244 93.5 1244 99H1229V114H1219V54H1229V65.5C1226 67 1224 70.5 1224 74C1224 79.5 1228.5 84 1234 84C1239.5 84 1244 79.5 1244 74H1254C1254 79.5 1258.5 84 1264 84C1269.5 84 1274 79.5 1274 74C1274 68.5 1269.5 64 1264 64C1260.5 64 1257 66 1255.5 69H1242.5C1241 66 1237.5 64 1234 64V54H1279V114ZM1249 99C1249 96 1251 94 1254 94C1257 94 1259 96 1259 99C1259 102 1257 104 1254 104C1251 104 1249 102 1249 99ZM1234 69C1237 69 1239 71 1239 74C1239 77 1237 79 1234 79C1231 79 1229 77 1229 74C1229 71 1231 69 1234 69ZM1264 69C1267 69 1269 71 1269 74C1269 77 1267 79 1264 79C1261 79 1259 77 1259 74C1259 71 1261 69 1264 69Z" fill="white"/>
</svg>
