<svg width="1363" height="167" viewBox="0 0 1363 167" fill="none" xmlns="http://www.w3.org/2000/svg">
<rect width="1363" height="167" rx="15" fill="#F0F0F0"/>
<path d="M0 15C0 6.71573 6.71573 0 15 0H37V167H15C6.71573 167 0 160.284 0 152V15Z" fill="#424241"/>
<path d="M100.906 50.9219L93.3945 48.2383V45.0859L103.602 49.375V51.6367L100.906 50.9219ZM93.3945 53.1719L100.918 50.4297L103.602 49.7852V52.0352L93.3945 56.3242V53.1719ZM125.914 49.0703V49.8789C125.914 51.1758 125.738 52.3398 125.387 53.3711C125.035 54.4023 124.539 55.2812 123.898 56.0078C123.258 56.7266 122.492 57.2773 121.602 57.6602C120.719 58.043 119.738 58.2344 118.66 58.2344C117.59 58.2344 116.609 58.043 115.719 57.6602C114.836 57.2773 114.07 56.7266 113.422 56.0078C112.773 55.2812 112.27 54.4023 111.91 53.3711C111.559 52.3398 111.383 51.1758 111.383 49.8789V49.0703C111.383 47.7656 111.559 46.6016 111.91 45.5781C112.262 44.5469 112.758 43.668 113.398 42.9414C114.047 42.2148 114.812 41.6602 115.695 41.2773C116.586 40.8945 117.566 40.7031 118.637 40.7031C119.715 40.7031 120.695 40.8945 121.578 41.2773C122.469 41.6602 123.234 42.2148 123.875 42.9414C124.523 43.668 125.023 44.5469 125.375 45.5781C125.734 46.6016 125.914 47.7656 125.914 49.0703ZM122.363 49.8789V49.0469C122.363 48.1406 122.281 47.3438 122.117 46.6562C121.953 45.9688 121.711 45.3906 121.391 44.9219C121.07 44.4531 120.68 44.1016 120.219 43.8672C119.758 43.625 119.23 43.5039 118.637 43.5039C118.043 43.5039 117.516 43.625 117.055 43.8672C116.602 44.1016 116.215 44.4531 115.895 44.9219C115.582 45.3906 115.344 45.9688 115.18 46.6562C115.016 47.3438 114.934 48.1406 114.934 49.0469V49.8789C114.934 50.7773 115.016 51.5742 115.18 52.2695C115.344 52.957 115.586 53.5391 115.906 54.0156C116.227 54.4844 116.617 54.8398 117.078 55.082C117.539 55.3242 118.066 55.4453 118.66 55.4453C119.254 55.4453 119.781 55.3242 120.242 55.082C120.703 54.8398 121.09 54.4844 121.402 54.0156C121.715 53.5391 121.953 52.957 122.117 52.2695C122.281 51.5742 122.363 50.7773 122.363 49.8789ZM131.539 48.0273V58H128.164V45.3203H131.328L131.539 48.0273ZM131.047 51.2148H130.133C130.133 50.2773 130.254 49.4336 130.496 48.6836C130.738 47.9258 131.078 47.2812 131.516 46.75C131.953 46.2109 132.473 45.8008 133.074 45.5195C133.684 45.2305 134.363 45.0859 135.113 45.0859C135.707 45.0859 136.25 45.1719 136.742 45.3438C137.234 45.5156 137.656 45.7891 138.008 46.1641C138.367 46.5391 138.641 47.0352 138.828 47.6523C139.023 48.2695 139.121 49.0234 139.121 49.9141V58H135.723V49.9023C135.723 49.3398 135.645 48.9023 135.488 48.5898C135.332 48.2773 135.102 48.0586 134.797 47.9336C134.5 47.8008 134.133 47.7344 133.695 47.7344C133.242 47.7344 132.848 47.8242 132.512 48.0039C132.184 48.1836 131.91 48.4336 131.691 48.7539C131.48 49.0664 131.32 49.4336 131.211 49.8555C131.102 50.2773 131.047 50.7305 131.047 51.2148ZM150.219 40.9375L153.781 48.7188L157.344 40.9375H161.176L155.562 51.7891V58H152V51.7891L146.375 40.9375H150.219ZM161.211 51.7891V51.543C161.211 50.6133 161.344 49.7578 161.609 48.9766C161.875 48.1875 162.262 47.5039 162.77 46.9258C163.277 46.3477 163.902 45.8984 164.645 45.5781C165.387 45.25 166.238 45.0859 167.199 45.0859C168.16 45.0859 169.016 45.25 169.766 45.5781C170.516 45.8984 171.145 46.3477 171.652 46.9258C172.168 47.5039 172.559 48.1875 172.824 48.9766C173.09 49.7578 173.223 50.6133 173.223 51.543V51.7891C173.223 52.7109 173.09 53.5664 172.824 54.3555C172.559 55.1367 172.168 55.8203 171.652 56.4062C171.145 56.9844 170.52 57.4336 169.777 57.7539C169.035 58.0742 168.184 58.2344 167.223 58.2344C166.262 58.2344 165.406 58.0742 164.656 57.7539C163.914 57.4336 163.285 56.9844 162.77 56.4062C162.262 55.8203 161.875 55.1367 161.609 54.3555C161.344 53.5664 161.211 52.7109 161.211 51.7891ZM164.586 51.543V51.7891C164.586 52.3203 164.633 52.8164 164.727 53.2773C164.82 53.7383 164.969 54.1445 165.172 54.4961C165.383 54.8398 165.656 55.1094 165.992 55.3047C166.328 55.5 166.738 55.5977 167.223 55.5977C167.691 55.5977 168.094 55.5 168.43 55.3047C168.766 55.1094 169.035 54.8398 169.238 54.4961C169.441 54.1445 169.59 53.7383 169.684 53.2773C169.785 52.8164 169.836 52.3203 169.836 51.7891V51.543C169.836 51.0273 169.785 50.543 169.684 50.0898C169.59 49.6289 169.438 49.2227 169.227 48.8711C169.023 48.5117 168.754 48.2305 168.418 48.0273C168.082 47.8242 167.676 47.7227 167.199 47.7227C166.723 47.7227 166.316 47.8242 165.98 48.0273C165.652 48.2305 165.383 48.5117 165.172 48.8711C164.969 49.2227 164.82 49.6289 164.727 50.0898C164.633 50.543 164.586 51.0273 164.586 51.543ZM182.797 54.9648V45.3203H186.172V58H182.996L182.797 54.9648ZM183.172 52.3633L184.168 52.3398C184.168 53.1836 184.07 53.9688 183.875 54.6953C183.68 55.4141 183.387 56.0391 182.996 56.5703C182.605 57.0938 182.113 57.5039 181.52 57.8008C180.926 58.0898 180.227 58.2344 179.422 58.2344C178.805 58.2344 178.234 58.1484 177.711 57.9766C177.195 57.7969 176.75 57.5195 176.375 57.1445C176.008 56.7617 175.719 56.2734 175.508 55.6797C175.305 55.0781 175.203 54.3555 175.203 53.5117V45.3203H178.578V53.5352C178.578 53.9102 178.621 54.2266 178.707 54.4844C178.801 54.7422 178.93 54.9531 179.094 55.1172C179.258 55.2812 179.449 55.3984 179.668 55.4688C179.895 55.5391 180.145 55.5742 180.418 55.5742C181.113 55.5742 181.66 55.4336 182.059 55.1523C182.465 54.8711 182.75 54.4883 182.914 54.0039C183.086 53.5117 183.172 52.9648 183.172 52.3633ZM192.125 48.0859V58H188.75V45.3203H191.926L192.125 48.0859ZM195.945 45.2383L195.887 48.3672C195.723 48.3438 195.523 48.3242 195.289 48.3086C195.062 48.2852 194.855 48.2734 194.668 48.2734C194.191 48.2734 193.777 48.3359 193.426 48.4609C193.082 48.5781 192.793 48.7539 192.559 48.9883C192.332 49.2227 192.16 49.5078 192.043 49.8438C191.934 50.1797 191.871 50.5625 191.855 50.9922L191.176 50.7812C191.176 49.9609 191.258 49.207 191.422 48.5195C191.586 47.8242 191.824 47.2188 192.137 46.7031C192.457 46.1875 192.848 45.7891 193.309 45.5078C193.77 45.2266 194.297 45.0859 194.891 45.0859C195.078 45.0859 195.27 45.1016 195.465 45.1328C195.66 45.1562 195.82 45.1914 195.945 45.2383ZM207.84 55.293L211.238 40.9375H213.137L213.57 43.3281L209.949 58H207.91L207.84 55.293ZM206.094 40.9375L208.906 55.293L208.672 58H206.398L202.613 40.9375H206.094ZM216.559 55.2344L219.336 40.9375H222.816L219.043 58H216.77L216.559 55.2344ZM214.203 40.9375L217.625 55.3516L217.531 58H215.492L211.848 43.3164L212.316 40.9375H214.203ZM230.961 55.1406V49.4922C230.961 49.0859 230.895 48.7383 230.762 48.4492C230.629 48.1523 230.422 47.9219 230.141 47.7578C229.867 47.5938 229.512 47.5117 229.074 47.5117C228.699 47.5117 228.375 47.5781 228.102 47.7109C227.828 47.8359 227.617 48.0195 227.469 48.2617C227.32 48.4961 227.246 48.7734 227.246 49.0938H223.871C223.871 48.5547 223.996 48.043 224.246 47.5586C224.496 47.0742 224.859 46.6484 225.336 46.2812C225.812 45.9062 226.379 45.6133 227.035 45.4023C227.699 45.1914 228.441 45.0859 229.262 45.0859C230.246 45.0859 231.121 45.25 231.887 45.5781C232.652 45.9062 233.254 46.3984 233.691 47.0547C234.137 47.7109 234.359 48.5312 234.359 49.5156V54.9414C234.359 55.6367 234.402 56.207 234.488 56.6523C234.574 57.0898 234.699 57.4727 234.863 57.8008V58H231.453C231.289 57.6562 231.164 57.2266 231.078 56.7109C231 56.1875 230.961 55.6641 230.961 55.1406ZM231.406 50.2773L231.43 52.1875H229.543C229.098 52.1875 228.711 52.2383 228.383 52.3398C228.055 52.4414 227.785 52.5859 227.574 52.7734C227.363 52.9531 227.207 53.1641 227.105 53.4062C227.012 53.6484 226.965 53.9141 226.965 54.2031C226.965 54.4922 227.031 54.7539 227.164 54.9883C227.297 55.2148 227.488 55.3945 227.738 55.5273C227.988 55.6523 228.281 55.7148 228.617 55.7148C229.125 55.7148 229.566 55.6133 229.941 55.4102C230.316 55.207 230.605 54.957 230.809 54.6602C231.02 54.3633 231.129 54.082 231.137 53.8164L232.027 55.2461C231.902 55.5664 231.73 55.8984 231.512 56.2422C231.301 56.5859 231.031 56.9102 230.703 57.2148C230.375 57.5117 229.98 57.7578 229.52 57.9531C229.059 58.1406 228.512 58.2344 227.879 58.2344C227.074 58.2344 226.344 58.0742 225.688 57.7539C225.039 57.4258 224.523 56.9766 224.141 56.4062C223.766 55.8281 223.578 55.1719 223.578 54.4375C223.578 53.7734 223.703 53.1836 223.953 52.668C224.203 52.1523 224.57 51.7188 225.055 51.3672C225.547 51.0078 226.16 50.7383 226.895 50.5586C227.629 50.3711 228.48 50.2773 229.449 50.2773H231.406ZM240.535 56.5703L243.898 45.3203H247.52L242.422 59.9102C242.312 60.2305 242.164 60.5742 241.977 60.9414C241.797 61.3086 241.551 61.6562 241.238 61.9844C240.934 62.3203 240.547 62.5938 240.078 62.8047C239.617 63.0156 239.051 63.1211 238.379 63.1211C238.059 63.1211 237.797 63.1016 237.594 63.0625C237.391 63.0234 237.148 62.9688 236.867 62.8984V60.4258C236.953 60.4258 237.043 60.4258 237.137 60.4258C237.23 60.4336 237.32 60.4375 237.406 60.4375C237.852 60.4375 238.215 60.3867 238.496 60.2852C238.777 60.1836 239.004 60.0273 239.176 59.8164C239.348 59.6133 239.484 59.3477 239.586 59.0195L240.535 56.5703ZM239.129 45.3203L241.883 54.5078L242.363 58.082L240.066 58.3281L235.508 45.3203H239.129Z" fill="#888888"/>
<path d="M109.93 86.0078V118H102.217V86.0078H109.93ZM119.554 86.0078V91.9624H92.813V86.0078H119.554ZM132.012 118.439C130.079 118.439 128.35 118.139 126.827 117.539C125.303 116.923 124.014 116.081 122.959 115.012C121.919 113.942 121.121 112.712 120.564 111.32C120.022 109.929 119.751 108.457 119.751 106.904V106.069C119.751 104.326 119.993 102.714 120.477 101.235C120.96 99.7407 121.678 98.437 122.63 97.3237C123.582 96.2104 124.776 95.3462 126.211 94.731C127.647 94.1011 129.317 93.7861 131.221 93.7861C132.906 93.7861 134.415 94.0571 135.748 94.5991C137.081 95.1411 138.208 95.9175 139.131 96.9282C140.069 97.939 140.779 99.1621 141.263 100.598C141.761 102.033 142.01 103.645 142.01 105.432V108.442H122.586V103.806H134.781V103.234C134.795 102.443 134.656 101.77 134.363 101.213C134.085 100.656 133.675 100.231 133.133 99.9385C132.591 99.6455 131.932 99.499 131.155 99.499C130.35 99.499 129.683 99.6748 129.156 100.026C128.643 100.378 128.24 100.861 127.947 101.477C127.669 102.077 127.471 102.773 127.354 103.564C127.237 104.355 127.178 105.19 127.178 106.069V106.904C127.178 107.783 127.295 108.581 127.53 109.299C127.779 110.017 128.13 110.632 128.584 111.145C129.053 111.643 129.61 112.031 130.254 112.309C130.914 112.587 131.661 112.727 132.496 112.727C133.506 112.727 134.502 112.536 135.484 112.155C136.465 111.774 137.308 111.145 138.011 110.266L141.373 114.265C140.889 114.953 140.201 115.62 139.307 116.264C138.428 116.909 137.374 117.436 136.143 117.846C134.913 118.242 133.536 118.439 132.012 118.439ZM155.062 112.727C155.75 112.727 156.336 112.602 156.819 112.353C157.317 112.089 157.691 111.723 157.94 111.254C158.204 110.771 158.328 110.192 158.313 109.519H165.279C165.293 111.306 164.854 112.873 163.96 114.221C163.082 115.554 161.88 116.594 160.357 117.341C158.848 118.073 157.142 118.439 155.237 118.439C153.377 118.439 151.751 118.139 150.359 117.539C148.968 116.923 147.803 116.074 146.866 114.99C145.943 113.891 145.247 112.609 144.778 111.145C144.324 109.68 144.097 108.09 144.097 106.376V105.871C144.097 104.157 144.324 102.568 144.778 101.103C145.247 99.6235 145.943 98.3418 146.866 97.2578C147.803 96.1592 148.96 95.3096 150.337 94.709C151.729 94.0938 153.348 93.7861 155.193 93.7861C157.171 93.7861 158.914 94.1597 160.423 94.9067C161.946 95.6538 163.14 96.7378 164.004 98.1587C164.869 99.5796 165.293 101.301 165.279 103.322H158.313C158.328 102.604 158.218 101.96 157.984 101.389C157.75 100.817 157.383 100.363 156.885 100.026C156.402 99.6748 155.779 99.499 155.018 99.499C154.256 99.499 153.641 99.6675 153.172 100.004C152.703 100.341 152.344 100.81 152.095 101.411C151.861 101.997 151.7 102.67 151.612 103.432C151.539 104.194 151.502 105.007 151.502 105.871V106.376C151.502 107.255 151.539 108.083 151.612 108.859C151.7 109.621 151.868 110.295 152.117 110.881C152.366 111.452 152.725 111.906 153.194 112.243C153.663 112.565 154.285 112.727 155.062 112.727ZM175.694 84.25V118H168.289V84.25H175.694ZM174.815 105.3L173.079 105.344C173.079 103.674 173.284 102.136 173.694 100.729C174.104 99.3232 174.69 98.1001 175.452 97.0601C176.214 96.02 177.129 95.2144 178.199 94.6431C179.268 94.0718 180.455 93.7861 181.758 93.7861C182.93 93.7861 184 93.9546 184.966 94.2915C185.948 94.6284 186.79 95.1704 187.493 95.9175C188.211 96.6646 188.76 97.6387 189.141 98.8398C189.537 100.041 189.734 101.506 189.734 103.234V118H182.286V103.19C182.286 102.224 182.146 101.477 181.868 100.949C181.604 100.407 181.224 100.034 180.726 99.8286C180.228 99.6089 179.62 99.499 178.902 99.499C178.038 99.499 177.334 99.6455 176.792 99.9385C176.25 100.231 175.833 100.642 175.54 101.169C175.262 101.682 175.071 102.29 174.969 102.993C174.866 103.696 174.815 104.465 174.815 105.3ZM221.88 109.497C221.88 108.999 221.807 108.552 221.661 108.156C221.514 107.746 221.243 107.365 220.848 107.014C220.452 106.662 219.881 106.311 219.134 105.959C218.401 105.593 217.435 105.212 216.233 104.816C214.827 104.348 213.472 103.82 212.168 103.234C210.865 102.634 209.7 101.938 208.675 101.147C207.649 100.341 206.836 99.4038 206.236 98.3345C205.635 97.2505 205.335 95.9907 205.335 94.5552C205.335 93.1782 205.643 91.9404 206.258 90.8418C206.873 89.7285 207.73 88.7837 208.829 88.0073C209.942 87.2163 211.246 86.6157 212.74 86.2056C214.234 85.7808 215.867 85.5684 217.64 85.5684C219.983 85.5684 222.049 85.9785 223.836 86.7988C225.638 87.6045 227.044 88.7544 228.055 90.2485C229.08 91.728 229.593 93.4785 229.593 95.5H221.924C221.924 94.6943 221.756 93.9839 221.419 93.3687C221.097 92.7534 220.606 92.27 219.947 91.9185C219.288 91.5669 218.46 91.3911 217.464 91.3911C216.497 91.3911 215.684 91.5376 215.025 91.8306C214.366 92.1235 213.868 92.519 213.531 93.0171C213.194 93.5005 213.025 94.0352 213.025 94.6211C213.025 95.1045 213.157 95.5439 213.421 95.9395C213.699 96.3203 214.087 96.6792 214.585 97.0161C215.098 97.353 215.713 97.6753 216.431 97.9829C217.164 98.2905 217.984 98.5908 218.892 98.8838C220.591 99.4258 222.1 100.034 223.418 100.708C224.751 101.367 225.872 102.121 226.78 102.971C227.703 103.806 228.399 104.758 228.868 105.827C229.351 106.896 229.593 108.105 229.593 109.453C229.593 110.888 229.314 112.163 228.758 113.276C228.201 114.389 227.403 115.334 226.363 116.11C225.323 116.872 224.078 117.451 222.627 117.846C221.177 118.242 219.559 118.439 217.771 118.439C216.131 118.439 214.512 118.234 212.916 117.824C211.333 117.399 209.898 116.755 208.609 115.891C207.32 115.012 206.287 113.891 205.511 112.529C204.749 111.152 204.368 109.519 204.368 107.629H212.103C212.103 108.566 212.227 109.357 212.476 110.002C212.725 110.646 213.091 111.167 213.575 111.562C214.058 111.943 214.651 112.221 215.354 112.397C216.058 112.558 216.863 112.639 217.771 112.639C218.753 112.639 219.544 112.5 220.145 112.221C220.745 111.928 221.185 111.547 221.463 111.079C221.741 110.595 221.88 110.068 221.88 109.497ZM245.743 94.2256V99.3672H231.417V94.2256H245.743ZM234.427 88.3149H241.832V110.244C241.832 110.874 241.905 111.364 242.051 111.716C242.198 112.053 242.447 112.294 242.798 112.441C243.165 112.573 243.648 112.639 244.249 112.639C244.673 112.639 245.025 112.631 245.303 112.617C245.582 112.587 245.845 112.551 246.094 112.507V117.802C245.464 118.007 244.805 118.161 244.117 118.264C243.428 118.381 242.696 118.439 241.919 118.439C240.337 118.439 238.982 118.19 237.854 117.692C236.741 117.194 235.892 116.411 235.306 115.341C234.72 114.272 234.427 112.88 234.427 111.167V88.3149ZM261.036 112.023V102.224C261.036 101.55 260.94 100.971 260.75 100.488C260.56 100.004 260.259 99.6309 259.849 99.3672C259.439 99.0889 258.89 98.9497 258.201 98.9497C257.645 98.9497 257.168 99.0449 256.773 99.2354C256.377 99.4258 256.077 99.7114 255.872 100.092C255.667 100.473 255.564 100.957 255.564 101.542H248.16C248.16 100.444 248.401 99.4258 248.885 98.4883C249.383 97.5361 250.086 96.7085 250.994 96.0054C251.917 95.3022 253.016 94.7603 254.29 94.3794C255.579 93.9839 257.015 93.7861 258.597 93.7861C260.486 93.7861 262.171 94.1011 263.65 94.731C265.145 95.3608 266.324 96.3057 267.188 97.5654C268.052 98.8105 268.484 100.378 268.484 102.268V112.001C268.484 113.554 268.572 114.733 268.748 115.539C268.924 116.33 269.173 117.026 269.495 117.626V118H262.068C261.717 117.268 261.453 116.374 261.277 115.319C261.116 114.25 261.036 113.151 261.036 112.023ZM261.937 103.476L261.98 107.431H258.707C258.018 107.431 257.432 107.526 256.949 107.717C256.48 107.907 256.099 108.171 255.806 108.508C255.528 108.83 255.323 109.196 255.191 109.606C255.074 110.017 255.015 110.449 255.015 110.903C255.015 111.342 255.118 111.738 255.323 112.089C255.542 112.426 255.835 112.69 256.202 112.88C256.568 113.071 256.978 113.166 257.432 113.166C258.252 113.166 258.948 113.012 259.52 112.705C260.105 112.382 260.552 111.994 260.86 111.54C261.167 111.086 261.321 110.661 261.321 110.266L262.947 113.298C262.654 113.884 262.317 114.477 261.937 115.078C261.57 115.678 261.109 116.235 260.552 116.748C260.01 117.246 259.344 117.656 258.553 117.978C257.762 118.286 256.802 118.439 255.674 118.439C254.209 118.439 252.862 118.139 251.631 117.539C250.416 116.938 249.441 116.103 248.709 115.034C247.977 113.95 247.61 112.705 247.61 111.298C247.61 110.068 247.83 108.969 248.27 108.002C248.724 107.036 249.405 106.215 250.313 105.542C251.221 104.868 252.378 104.355 253.785 104.003C255.191 103.652 256.846 103.476 258.75 103.476H261.937ZM282.635 112.727C283.323 112.727 283.909 112.602 284.393 112.353C284.891 112.089 285.264 111.723 285.513 111.254C285.777 110.771 285.901 110.192 285.887 109.519H292.852C292.867 111.306 292.427 112.873 291.534 114.221C290.655 115.554 289.454 116.594 287.93 117.341C286.421 118.073 284.715 118.439 282.811 118.439C280.95 118.439 279.324 118.139 277.933 117.539C276.541 116.923 275.376 116.074 274.439 114.99C273.516 113.891 272.82 112.609 272.352 111.145C271.897 109.68 271.67 108.09 271.67 106.376V105.871C271.67 104.157 271.897 102.568 272.352 101.103C272.82 99.6235 273.516 98.3418 274.439 97.2578C275.376 96.1592 276.534 95.3096 277.911 94.709C279.302 94.0938 280.921 93.7861 282.767 93.7861C284.744 93.7861 286.487 94.1597 287.996 94.9067C289.52 95.6538 290.713 96.7378 291.578 98.1587C292.442 99.5796 292.867 101.301 292.852 103.322H285.887C285.901 102.604 285.792 101.96 285.557 101.389C285.323 100.817 284.957 100.363 284.458 100.026C283.975 99.6748 283.353 99.499 282.591 99.499C281.829 99.499 281.214 99.6675 280.745 100.004C280.276 100.341 279.917 100.81 279.668 101.411C279.434 101.997 279.273 102.67 279.185 103.432C279.112 104.194 279.075 105.007 279.075 105.871V106.376C279.075 107.255 279.112 108.083 279.185 108.859C279.273 109.621 279.441 110.295 279.69 110.881C279.939 111.452 280.298 111.906 280.767 112.243C281.236 112.565 281.858 112.727 282.635 112.727ZM303.487 84.228V118H296.082V84.228H303.487ZM318.692 94.2256L308.365 106.333L302.959 111.738L299.729 107.036L304.234 101.169L309.815 94.2256H318.692ZM310.76 118L304.41 107.167L309.881 103.278L319.241 118H310.76Z" fill="#424241"/>
<path d="M1363 15C1363 6.71573 1356.28 0 1348 0H1134V167H1348C1356.28 167 1363 160.284 1363 152V15Z" fill="#FFC700"/>
<path fill-rule="evenodd" clip-rule="evenodd" d="M1218.5 55C1218.37 55 1218.24 55.0527 1218.15 55.1464C1218.05 55.2402 1218 55.3674 1218 55.5V111.5C1218 111.633 1218.05 111.76 1218.15 111.854C1218.24 111.947 1218.37 112 1218.5 112H1278C1278.13 112 1278.26 111.947 1278.35 111.854C1278.45 111.76 1278.5 111.633 1278.5 111.5V66C1278.5 65.8674 1278.45 65.7402 1278.35 65.6464C1278.26 65.5527 1278.13 65.5 1278 65.5H1248.25C1247.36 65.5 1246.52 65.1045 1245.95 64.4206L1238.09 55H1218.5ZM1213.9 50.9038C1215.12 49.6848 1216.78 49 1218.5 49H1239.5C1240.39 49 1241.23 49.3955 1241.8 50.0794L1249.66 59.5H1278C1279.72 59.5 1281.38 60.1848 1282.6 61.4038C1283.82 62.6228 1284.5 64.2761 1284.5 66V111.5C1284.5 113.224 1283.82 114.877 1282.6 116.096C1281.38 117.315 1279.72 118 1278 118H1218.5C1216.78 118 1215.12 117.315 1213.9 116.096C1212.68 114.877 1212 113.224 1212 111.5V55.5C1212 53.7761 1212.68 52.1228 1213.9 50.9038Z" fill="white"/>
<path fill-rule="evenodd" clip-rule="evenodd" d="M1243.72 77.5251C1245.09 78.892 1245.09 81.108 1243.72 82.4749L1237.45 88.75L1243.72 95.0251C1245.09 96.392 1245.09 98.608 1243.72 99.9749C1242.36 101.342 1240.14 101.342 1238.78 99.9749L1230.03 91.2249C1228.66 89.858 1228.66 87.642 1230.03 86.2751L1238.78 77.5251C1240.14 76.1583 1242.36 76.1583 1243.72 77.5251Z" fill="white"/>
<path fill-rule="evenodd" clip-rule="evenodd" d="M1252.03 99.9749C1250.66 98.608 1250.66 96.392 1252.03 95.0251L1258.3 88.75L1252.03 82.4749C1250.66 81.108 1250.66 78.892 1252.03 77.5251C1253.39 76.1583 1255.61 76.1583 1256.97 77.5251L1265.72 86.2751C1267.09 87.642 1267.09 89.858 1265.72 91.2249L1256.97 99.9749C1255.61 101.342 1253.39 101.342 1252.03 99.9749Z" fill="white"/>
</svg>
