<svg width="1363" height="167" viewBox="0 0 1363 167" fill="none" xmlns="http://www.w3.org/2000/svg">
<rect width="1363" height="167" rx="15" fill="#F0F0F0"/>
<path d="M0 15C0 6.71573 6.71573 0 15 0H37V167H15C6.71573 167 0 160.284 0 152V15Z" fill="#424241"/>
<path d="M100.906 50.9219L93.3945 48.2383V45.0859L103.602 49.375V51.6367L100.906 50.9219ZM93.3945 53.1719L100.918 50.4297L103.602 49.7852V52.0352L93.3945 56.3242V53.1719ZM125.914 49.0703V49.8789C125.914 51.1758 125.738 52.3398 125.387 53.3711C125.035 54.4023 124.539 55.2812 123.898 56.0078C123.258 56.7266 122.492 57.2773 121.602 57.6602C120.719 58.043 119.738 58.2344 118.66 58.2344C117.59 58.2344 116.609 58.043 115.719 57.6602C114.836 57.2773 114.07 56.7266 113.422 56.0078C112.773 55.2812 112.27 54.4023 111.91 53.3711C111.559 52.3398 111.383 51.1758 111.383 49.8789V49.0703C111.383 47.7656 111.559 46.6016 111.91 45.5781C112.262 44.5469 112.758 43.668 113.398 42.9414C114.047 42.2148 114.812 41.6602 115.695 41.2773C116.586 40.8945 117.566 40.7031 118.637 40.7031C119.715 40.7031 120.695 40.8945 121.578 41.2773C122.469 41.6602 123.234 42.2148 123.875 42.9414C124.523 43.668 125.023 44.5469 125.375 45.5781C125.734 46.6016 125.914 47.7656 125.914 49.0703ZM122.363 49.8789V49.0469C122.363 48.1406 122.281 47.3438 122.117 46.6562C121.953 45.9688 121.711 45.3906 121.391 44.9219C121.07 44.4531 120.68 44.1016 120.219 43.8672C119.758 43.625 119.23 43.5039 118.637 43.5039C118.043 43.5039 117.516 43.625 117.055 43.8672C116.602 44.1016 116.215 44.4531 115.895 44.9219C115.582 45.3906 115.344 45.9688 115.18 46.6562C115.016 47.3438 114.934 48.1406 114.934 49.0469V49.8789C114.934 50.7773 115.016 51.5742 115.18 52.2695C115.344 52.957 115.586 53.5391 115.906 54.0156C116.227 54.4844 116.617 54.8398 117.078 55.082C117.539 55.3242 118.066 55.4453 118.66 55.4453C119.254 55.4453 119.781 55.3242 120.242 55.082C120.703 54.8398 121.09 54.4844 121.402 54.0156C121.715 53.5391 121.953 52.957 122.117 52.2695C122.281 51.5742 122.363 50.7773 122.363 49.8789ZM131.539 48.0273V58H128.164V45.3203H131.328L131.539 48.0273ZM131.047 51.2148H130.133C130.133 50.2773 130.254 49.4336 130.496 48.6836C130.738 47.9258 131.078 47.2812 131.516 46.75C131.953 46.2109 132.473 45.8008 133.074 45.5195C133.684 45.2305 134.363 45.0859 135.113 45.0859C135.707 45.0859 136.25 45.1719 136.742 45.3438C137.234 45.5156 137.656 45.7891 138.008 46.1641C138.367 46.5391 138.641 47.0352 138.828 47.6523C139.023 48.2695 139.121 49.0234 139.121 49.9141V58H135.723V49.9023C135.723 49.3398 135.645 48.9023 135.488 48.5898C135.332 48.2773 135.102 48.0586 134.797 47.9336C134.5 47.8008 134.133 47.7344 133.695 47.7344C133.242 47.7344 132.848 47.8242 132.512 48.0039C132.184 48.1836 131.91 48.4336 131.691 48.7539C131.48 49.0664 131.32 49.4336 131.211 49.8555C131.102 50.2773 131.047 50.7305 131.047 51.2148ZM150.219 40.9375L153.781 48.7188L157.344 40.9375H161.176L155.562 51.7891V58H152V51.7891L146.375 40.9375H150.219ZM161.211 51.7891V51.543C161.211 50.6133 161.344 49.7578 161.609 48.9766C161.875 48.1875 162.262 47.5039 162.77 46.9258C163.277 46.3477 163.902 45.8984 164.645 45.5781C165.387 45.25 166.238 45.0859 167.199 45.0859C168.16 45.0859 169.016 45.25 169.766 45.5781C170.516 45.8984 171.145 46.3477 171.652 46.9258C172.168 47.5039 172.559 48.1875 172.824 48.9766C173.09 49.7578 173.223 50.6133 173.223 51.543V51.7891C173.223 52.7109 173.09 53.5664 172.824 54.3555C172.559 55.1367 172.168 55.8203 171.652 56.4062C171.145 56.9844 170.52 57.4336 169.777 57.7539C169.035 58.0742 168.184 58.2344 167.223 58.2344C166.262 58.2344 165.406 58.0742 164.656 57.7539C163.914 57.4336 163.285 56.9844 162.77 56.4062C162.262 55.8203 161.875 55.1367 161.609 54.3555C161.344 53.5664 161.211 52.7109 161.211 51.7891ZM164.586 51.543V51.7891C164.586 52.3203 164.633 52.8164 164.727 53.2773C164.82 53.7383 164.969 54.1445 165.172 54.4961C165.383 54.8398 165.656 55.1094 165.992 55.3047C166.328 55.5 166.738 55.5977 167.223 55.5977C167.691 55.5977 168.094 55.5 168.43 55.3047C168.766 55.1094 169.035 54.8398 169.238 54.4961C169.441 54.1445 169.59 53.7383 169.684 53.2773C169.785 52.8164 169.836 52.3203 169.836 51.7891V51.543C169.836 51.0273 169.785 50.543 169.684 50.0898C169.59 49.6289 169.438 49.2227 169.227 48.8711C169.023 48.5117 168.754 48.2305 168.418 48.0273C168.082 47.8242 167.676 47.7227 167.199 47.7227C166.723 47.7227 166.316 47.8242 165.98 48.0273C165.652 48.2305 165.383 48.5117 165.172 48.8711C164.969 49.2227 164.82 49.6289 164.727 50.0898C164.633 50.543 164.586 51.0273 164.586 51.543ZM182.797 54.9648V45.3203H186.172V58H182.996L182.797 54.9648ZM183.172 52.3633L184.168 52.3398C184.168 53.1836 184.07 53.9688 183.875 54.6953C183.68 55.4141 183.387 56.0391 182.996 56.5703C182.605 57.0938 182.113 57.5039 181.52 57.8008C180.926 58.0898 180.227 58.2344 179.422 58.2344C178.805 58.2344 178.234 58.1484 177.711 57.9766C177.195 57.7969 176.75 57.5195 176.375 57.1445C176.008 56.7617 175.719 56.2734 175.508 55.6797C175.305 55.0781 175.203 54.3555 175.203 53.5117V45.3203H178.578V53.5352C178.578 53.9102 178.621 54.2266 178.707 54.4844C178.801 54.7422 178.93 54.9531 179.094 55.1172C179.258 55.2812 179.449 55.3984 179.668 55.4688C179.895 55.5391 180.145 55.5742 180.418 55.5742C181.113 55.5742 181.66 55.4336 182.059 55.1523C182.465 54.8711 182.75 54.4883 182.914 54.0039C183.086 53.5117 183.172 52.9648 183.172 52.3633ZM192.125 48.0859V58H188.75V45.3203H191.926L192.125 48.0859ZM195.945 45.2383L195.887 48.3672C195.723 48.3438 195.523 48.3242 195.289 48.3086C195.062 48.2852 194.855 48.2734 194.668 48.2734C194.191 48.2734 193.777 48.3359 193.426 48.4609C193.082 48.5781 192.793 48.7539 192.559 48.9883C192.332 49.2227 192.16 49.5078 192.043 49.8438C191.934 50.1797 191.871 50.5625 191.855 50.9922L191.176 50.7812C191.176 49.9609 191.258 49.207 191.422 48.5195C191.586 47.8242 191.824 47.2188 192.137 46.7031C192.457 46.1875 192.848 45.7891 193.309 45.5078C193.77 45.2266 194.297 45.0859 194.891 45.0859C195.078 45.0859 195.27 45.1016 195.465 45.1328C195.66 45.1562 195.82 45.1914 195.945 45.2383ZM207.84 55.293L211.238 40.9375H213.137L213.57 43.3281L209.949 58H207.91L207.84 55.293ZM206.094 40.9375L208.906 55.293L208.672 58H206.398L202.613 40.9375H206.094ZM216.559 55.2344L219.336 40.9375H222.816L219.043 58H216.77L216.559 55.2344ZM214.203 40.9375L217.625 55.3516L217.531 58H215.492L211.848 43.3164L212.316 40.9375H214.203ZM230.961 55.1406V49.4922C230.961 49.0859 230.895 48.7383 230.762 48.4492C230.629 48.1523 230.422 47.9219 230.141 47.7578C229.867 47.5938 229.512 47.5117 229.074 47.5117C228.699 47.5117 228.375 47.5781 228.102 47.7109C227.828 47.8359 227.617 48.0195 227.469 48.2617C227.32 48.4961 227.246 48.7734 227.246 49.0938H223.871C223.871 48.5547 223.996 48.043 224.246 47.5586C224.496 47.0742 224.859 46.6484 225.336 46.2812C225.812 45.9062 226.379 45.6133 227.035 45.4023C227.699 45.1914 228.441 45.0859 229.262 45.0859C230.246 45.0859 231.121 45.25 231.887 45.5781C232.652 45.9062 233.254 46.3984 233.691 47.0547C234.137 47.7109 234.359 48.5312 234.359 49.5156V54.9414C234.359 55.6367 234.402 56.207 234.488 56.6523C234.574 57.0898 234.699 57.4727 234.863 57.8008V58H231.453C231.289 57.6562 231.164 57.2266 231.078 56.7109C231 56.1875 230.961 55.6641 230.961 55.1406ZM231.406 50.2773L231.43 52.1875H229.543C229.098 52.1875 228.711 52.2383 228.383 52.3398C228.055 52.4414 227.785 52.5859 227.574 52.7734C227.363 52.9531 227.207 53.1641 227.105 53.4062C227.012 53.6484 226.965 53.9141 226.965 54.2031C226.965 54.4922 227.031 54.7539 227.164 54.9883C227.297 55.2148 227.488 55.3945 227.738 55.5273C227.988 55.6523 228.281 55.7148 228.617 55.7148C229.125 55.7148 229.566 55.6133 229.941 55.4102C230.316 55.207 230.605 54.957 230.809 54.6602C231.02 54.3633 231.129 54.082 231.137 53.8164L232.027 55.2461C231.902 55.5664 231.73 55.8984 231.512 56.2422C231.301 56.5859 231.031 56.9102 230.703 57.2148C230.375 57.5117 229.98 57.7578 229.52 57.9531C229.059 58.1406 228.512 58.2344 227.879 58.2344C227.074 58.2344 226.344 58.0742 225.688 57.7539C225.039 57.4258 224.523 56.9766 224.141 56.4062C223.766 55.8281 223.578 55.1719 223.578 54.4375C223.578 53.7734 223.703 53.1836 223.953 52.668C224.203 52.1523 224.57 51.7188 225.055 51.3672C225.547 51.0078 226.16 50.7383 226.895 50.5586C227.629 50.3711 228.48 50.2773 229.449 50.2773H231.406ZM240.535 56.5703L243.898 45.3203H247.52L242.422 59.9102C242.312 60.2305 242.164 60.5742 241.977 60.9414C241.797 61.3086 241.551 61.6562 241.238 61.9844C240.934 62.3203 240.547 62.5938 240.078 62.8047C239.617 63.0156 239.051 63.1211 238.379 63.1211C238.059 63.1211 237.797 63.1016 237.594 63.0625C237.391 63.0234 237.148 62.9688 236.867 62.8984V60.4258C236.953 60.4258 237.043 60.4258 237.137 60.4258C237.23 60.4336 237.32 60.4375 237.406 60.4375C237.852 60.4375 238.215 60.3867 238.496 60.2852C238.777 60.1836 239.004 60.0273 239.176 59.8164C239.348 59.6133 239.484 59.3477 239.586 59.0195L240.535 56.5703ZM239.129 45.3203L241.883 54.5078L242.363 58.082L240.066 58.3281L235.508 45.3203H239.129Z" fill="#888888"/>
<path d="M107.205 107.146H99.251V101.191H107.205C108.289 101.191 109.168 101.008 109.842 100.642C110.516 100.275 111.006 99.77 111.314 99.1255C111.636 98.4663 111.797 97.7266 111.797 96.9062C111.797 96.0273 111.636 95.2144 111.314 94.4673C111.006 93.7202 110.516 93.1196 109.842 92.6655C109.168 92.1968 108.289 91.9624 107.205 91.9624H102.151V118H94.439V86.0078H107.205C109.769 86.0078 111.973 86.4766 113.819 87.4141C115.679 88.3516 117.107 89.6406 118.104 91.2812C119.1 92.9072 119.598 94.7676 119.598 96.8623C119.598 98.9277 119.1 100.729 118.104 102.268C117.107 103.806 115.679 105.007 113.819 105.871C111.973 106.721 109.769 107.146 107.205 107.146ZM130.87 100.114V118H123.465V94.2256H130.386L130.87 100.114ZM137.901 94.0498L137.769 100.927C137.476 100.898 137.081 100.861 136.583 100.817C136.084 100.773 135.667 100.751 135.33 100.751C134.466 100.751 133.719 100.854 133.089 101.059C132.474 101.25 131.961 101.542 131.551 101.938C131.155 102.319 130.862 102.802 130.672 103.388C130.496 103.974 130.416 104.655 130.43 105.432L129.09 104.553C129.09 102.956 129.244 101.506 129.551 100.202C129.874 98.8838 130.328 97.7485 130.914 96.7964C131.5 95.8296 132.21 95.0898 133.045 94.5771C133.88 94.0498 134.817 93.7861 135.857 93.7861C136.224 93.7861 136.583 93.8081 136.934 93.8521C137.3 93.896 137.623 93.9619 137.901 94.0498ZM138.736 106.354V105.893C138.736 104.15 138.985 102.546 139.483 101.081C139.981 99.6016 140.713 98.3198 141.68 97.2358C142.647 96.1519 143.841 95.3096 145.262 94.709C146.683 94.0938 148.323 93.7861 150.184 93.7861C152.059 93.7861 153.707 94.0938 155.127 94.709C156.563 95.3096 157.764 96.1519 158.731 97.2358C159.698 98.3198 160.43 99.6016 160.928 101.081C161.426 102.546 161.675 104.15 161.675 105.893V106.354C161.675 108.083 161.426 109.687 160.928 111.167C160.43 112.631 159.698 113.913 158.731 115.012C157.764 116.096 156.57 116.938 155.149 117.539C153.729 118.139 152.088 118.439 150.228 118.439C148.367 118.439 146.719 118.139 145.284 117.539C143.848 116.938 142.647 116.096 141.68 115.012C140.713 113.913 139.981 112.631 139.483 111.167C138.985 109.687 138.736 108.083 138.736 106.354ZM146.141 105.893V106.354C146.141 107.248 146.207 108.083 146.338 108.859C146.47 109.636 146.69 110.317 146.998 110.903C147.305 111.474 147.723 111.921 148.25 112.243C148.777 112.565 149.437 112.727 150.228 112.727C151.004 112.727 151.648 112.565 152.161 112.243C152.688 111.921 153.106 111.474 153.414 110.903C153.721 110.317 153.941 109.636 154.073 108.859C154.205 108.083 154.271 107.248 154.271 106.354V105.893C154.271 105.029 154.205 104.216 154.073 103.454C153.941 102.678 153.721 101.997 153.414 101.411C153.106 100.81 152.688 100.341 152.161 100.004C151.634 99.6675 150.975 99.499 150.184 99.499C149.407 99.499 148.755 99.6675 148.228 100.004C147.715 100.341 147.305 100.81 146.998 101.411C146.69 101.997 146.47 102.678 146.338 103.454C146.207 104.216 146.141 105.029 146.141 105.893ZM177.496 94.2256V99.3672H163.169V94.2256H177.496ZM166.18 88.3149H173.584V110.244C173.584 110.874 173.658 111.364 173.804 111.716C173.951 112.053 174.2 112.294 174.551 112.441C174.917 112.573 175.401 112.639 176.001 112.639C176.426 112.639 176.778 112.631 177.056 112.617C177.334 112.587 177.598 112.551 177.847 112.507V117.802C177.217 118.007 176.558 118.161 175.87 118.264C175.181 118.381 174.449 118.439 173.672 118.439C172.09 118.439 170.735 118.19 169.607 117.692C168.494 117.194 167.645 116.411 167.059 115.341C166.473 114.272 166.18 112.88 166.18 111.167V88.3149ZM178.858 106.354V105.893C178.858 104.15 179.107 102.546 179.605 101.081C180.103 99.6016 180.835 98.3198 181.802 97.2358C182.769 96.1519 183.963 95.3096 185.384 94.709C186.805 94.0938 188.445 93.7861 190.306 93.7861C192.181 93.7861 193.829 94.0938 195.25 94.709C196.685 95.3096 197.886 96.1519 198.853 97.2358C199.82 98.3198 200.552 99.6016 201.05 101.081C201.548 102.546 201.797 104.15 201.797 105.893V106.354C201.797 108.083 201.548 109.687 201.05 111.167C200.552 112.631 199.82 113.913 198.853 115.012C197.886 116.096 196.692 116.938 195.271 117.539C193.851 118.139 192.21 118.439 190.35 118.439C188.489 118.439 186.841 118.139 185.406 117.539C183.97 116.938 182.769 116.096 181.802 115.012C180.835 113.913 180.103 112.631 179.605 111.167C179.107 109.687 178.858 108.083 178.858 106.354ZM186.263 105.893V106.354C186.263 107.248 186.329 108.083 186.46 108.859C186.592 109.636 186.812 110.317 187.12 110.903C187.427 111.474 187.845 111.921 188.372 112.243C188.899 112.565 189.559 112.727 190.35 112.727C191.126 112.727 191.771 112.565 192.283 112.243C192.811 111.921 193.228 111.474 193.536 110.903C193.843 110.317 194.063 109.636 194.195 108.859C194.327 108.083 194.393 107.248 194.393 106.354V105.893C194.393 105.029 194.327 104.216 194.195 103.454C194.063 102.678 193.843 101.997 193.536 101.411C193.228 100.81 192.811 100.341 192.283 100.004C191.756 99.6675 191.097 99.499 190.306 99.499C189.529 99.499 188.877 99.6675 188.35 100.004C187.837 100.341 187.427 100.81 187.12 101.411C186.812 101.997 186.592 102.678 186.46 103.454C186.329 104.216 186.263 105.029 186.263 105.893ZM217.618 94.2256V99.3672H203.292V94.2256H217.618ZM206.302 88.3149H213.707V110.244C213.707 110.874 213.78 111.364 213.926 111.716C214.073 112.053 214.322 112.294 214.673 112.441C215.04 112.573 215.523 112.639 216.124 112.639C216.548 112.639 216.9 112.631 217.178 112.617C217.457 112.587 217.72 112.551 217.969 112.507V117.802C217.339 118.007 216.68 118.161 215.992 118.264C215.303 118.381 214.571 118.439 213.794 118.439C212.212 118.439 210.857 118.19 209.729 117.692C208.616 117.194 207.767 116.411 207.181 115.341C206.595 114.272 206.302 112.88 206.302 111.167V88.3149ZM227.857 115.209L234.009 94.2256H241.963L232.405 121.538C232.2 122.138 231.929 122.783 231.592 123.471C231.255 124.174 230.794 124.841 230.208 125.471C229.622 126.101 228.868 126.613 227.945 127.009C227.037 127.404 225.909 127.602 224.561 127.602C223.843 127.602 223.316 127.565 222.979 127.492C222.657 127.434 222.159 127.324 221.485 127.163V121.867C221.675 121.867 221.836 121.867 221.968 121.867C222.115 121.867 222.276 121.867 222.452 121.867C223.243 121.867 223.873 121.787 224.341 121.625C224.825 121.464 225.191 121.23 225.44 120.922C225.704 120.615 225.909 120.241 226.055 119.802L227.857 115.209ZM226.297 94.2256L230.977 110.859L231.79 118.703H226.824L218.365 94.2256H226.297ZM251.368 98.7959V127.141H243.963V94.2256H250.862L251.368 98.7959ZM265.958 105.827V106.289C265.958 108.017 265.76 109.621 265.364 111.101C264.969 112.58 264.383 113.869 263.606 114.968C262.83 116.066 261.863 116.923 260.706 117.539C259.563 118.139 258.238 118.439 256.729 118.439C255.308 118.439 254.085 118.125 253.06 117.495C252.034 116.865 251.177 115.993 250.489 114.88C249.8 113.767 249.244 112.492 248.819 111.057C248.394 109.621 248.057 108.105 247.808 106.508V105.915C248.057 104.201 248.394 102.612 248.819 101.147C249.244 99.6675 249.8 98.3784 250.489 97.2798C251.177 96.1812 252.027 95.3242 253.038 94.709C254.063 94.0938 255.286 93.7861 256.707 93.7861C258.216 93.7861 259.542 94.0718 260.684 94.6431C261.841 95.2144 262.808 96.0347 263.584 97.104C264.375 98.1587 264.969 99.4258 265.364 100.905C265.76 102.385 265.958 104.025 265.958 105.827ZM258.553 106.289V105.827C258.553 104.904 258.487 104.062 258.355 103.3C258.223 102.524 258.011 101.85 257.718 101.279C257.439 100.708 257.066 100.268 256.597 99.9604C256.128 99.6528 255.55 99.499 254.861 99.499C254.07 99.499 253.404 99.6235 252.862 99.8726C252.334 100.107 251.91 100.473 251.587 100.971C251.28 101.455 251.06 102.062 250.928 102.795C250.811 103.513 250.76 104.355 250.774 105.322V107.124C250.745 108.237 250.855 109.218 251.104 110.068C251.353 110.903 251.785 111.555 252.4 112.023C253.016 112.492 253.851 112.727 254.905 112.727C255.608 112.727 256.194 112.565 256.663 112.243C257.132 111.906 257.505 111.445 257.784 110.859C258.062 110.258 258.26 109.57 258.377 108.793C258.494 108.017 258.553 107.182 258.553 106.289ZM277.076 94.2256V118H269.649V94.2256H277.076ZM269.209 88.0952C269.209 87.0405 269.59 86.1763 270.352 85.5024C271.114 84.8286 272.103 84.4917 273.318 84.4917C274.534 84.4917 275.523 84.8286 276.285 85.5024C277.046 86.1763 277.427 87.0405 277.427 88.0952C277.427 89.1499 277.046 90.0142 276.285 90.688C275.523 91.3618 274.534 91.6987 273.318 91.6987C272.103 91.6987 271.114 91.3618 270.352 90.688C269.59 90.0142 269.209 89.1499 269.209 88.0952ZM288.919 99.3013V118H281.514V94.2256H288.458L288.919 99.3013ZM288.04 105.3L286.304 105.344C286.304 103.527 286.524 101.909 286.963 100.488C287.403 99.0522 288.025 97.8364 288.831 96.8403C289.637 95.8442 290.596 95.0898 291.709 94.5771C292.837 94.0498 294.09 93.7861 295.467 93.7861C296.565 93.7861 297.569 93.9473 298.477 94.2695C299.4 94.5918 300.191 95.1118 300.85 95.8296C301.524 96.5474 302.037 97.4995 302.388 98.686C302.754 99.8579 302.938 101.308 302.938 103.037V118H295.489V103.015C295.489 102.062 295.357 101.337 295.093 100.839C294.83 100.327 294.449 99.9751 293.951 99.7847C293.453 99.5942 292.845 99.499 292.127 99.499C291.365 99.499 290.721 99.6455 290.193 99.9385C289.666 100.231 289.241 100.642 288.919 101.169C288.611 101.682 288.384 102.29 288.238 102.993C288.106 103.696 288.04 104.465 288.04 105.3ZM321.988 94.2256H328.711V117.077C328.711 119.274 328.206 121.135 327.195 122.658C326.185 124.196 324.771 125.361 322.955 126.152C321.153 126.958 319.043 127.36 316.626 127.36C315.557 127.36 314.466 127.221 313.353 126.943C312.239 126.679 311.199 126.284 310.232 125.756C309.266 125.229 308.453 124.577 307.793 123.801L310.892 119.45C311.492 120.124 312.247 120.695 313.155 121.164C314.063 121.647 315.132 121.889 316.363 121.889C317.432 121.889 318.326 121.699 319.043 121.318C319.776 120.937 320.333 120.38 320.713 119.648C321.094 118.93 321.285 118.059 321.285 117.033V99.8506L321.988 94.2256ZM306.189 106.398V105.937C306.189 104.135 306.409 102.495 306.849 101.015C307.303 99.521 307.947 98.2393 308.782 97.1699C309.632 96.0859 310.657 95.251 311.858 94.665C313.06 94.0791 314.415 93.7861 315.923 93.7861C317.549 93.7861 318.882 94.1011 319.922 94.731C320.977 95.3462 321.819 96.2104 322.449 97.3237C323.094 98.437 323.592 99.7407 323.943 101.235C324.31 102.714 324.617 104.311 324.866 106.025V106.574C324.617 108.186 324.273 109.709 323.833 111.145C323.409 112.565 322.852 113.825 322.164 114.924C321.475 116.022 320.611 116.887 319.571 117.517C318.545 118.132 317.315 118.439 315.879 118.439C314.385 118.439 313.038 118.139 311.836 117.539C310.65 116.938 309.632 116.096 308.782 115.012C307.947 113.928 307.303 112.653 306.849 111.188C306.409 109.724 306.189 108.127 306.189 106.398ZM313.594 105.937V106.398C313.594 107.292 313.675 108.12 313.836 108.881C314.012 109.643 314.275 110.317 314.627 110.903C314.979 111.474 315.411 111.921 315.923 112.243C316.451 112.565 317.066 112.727 317.769 112.727C318.838 112.727 319.703 112.5 320.362 112.045C321.021 111.591 321.497 110.947 321.79 110.112C322.083 109.277 322.208 108.295 322.164 107.167V105.432C322.193 104.465 322.127 103.615 321.966 102.883C321.805 102.136 321.548 101.513 321.197 101.015C320.86 100.517 320.406 100.144 319.834 99.8945C319.278 99.6309 318.604 99.499 317.813 99.499C317.125 99.499 316.517 99.6602 315.989 99.9824C315.462 100.305 315.022 100.759 314.671 101.345C314.319 101.916 314.048 102.597 313.858 103.388C313.682 104.165 313.594 105.014 313.594 105.937Z" fill="#424241"/>
<path d="M1363 15C1363 6.71573 1356.28 0 1348 0H1134V167H1348C1356.28 167 1363 160.284 1363 152V15Z" fill="#FFC700"/>
<path fill-rule="evenodd" clip-rule="evenodd" d="M1203 49C1203 47.8954 1203.9 47 1205 47H1292.5C1293.6 47 1294.5 47.8954 1294.5 49V118.996C1294.5 120.101 1293.6 120.996 1292.5 120.996H1205C1203.9 120.996 1203 120.101 1203 118.996V49ZM1207 51V55.4945H1290.5V51H1207ZM1290.5 59.4945H1235.44V116.996H1290.5V59.4945ZM1231.44 116.996V59.4945H1207V116.996H1231.44Z" fill="white"/>
<path fill-rule="evenodd" clip-rule="evenodd" d="M1209.97 64.8004C1209.97 63.6958 1210.87 62.8004 1211.97 62.8004H1225.97C1227.08 62.8004 1227.97 63.6958 1227.97 64.8004V84.1956C1227.97 85.3001 1227.08 86.1956 1225.97 86.1956H1211.97C1210.87 86.1956 1209.97 85.3001 1209.97 84.1956V64.8004ZM1213.97 66.8004V82.1956H1223.97V66.8004H1213.97ZM1239.58 65.6964C1239.58 64.5918 1240.47 63.6964 1241.58 63.6964H1284.5C1285.61 63.6964 1286.5 64.5918 1286.5 65.6964V111.905C1286.5 113.01 1285.61 113.905 1284.5 113.905H1241.58C1240.47 113.905 1239.58 113.01 1239.58 111.905V65.6964ZM1243.58 67.6964V109.905H1282.5V67.6964H1243.58ZM1209.81 95.9363C1209.81 94.8317 1210.71 93.9363 1211.81 93.9363H1220.73C1221.84 93.9363 1222.73 94.8317 1222.73 95.9363C1222.73 97.0409 1221.84 97.9363 1220.73 97.9363H1211.81C1210.71 97.9363 1209.81 97.0409 1209.81 95.9363ZM1209.81 102.936C1209.81 101.832 1210.71 100.936 1211.81 100.936H1226.35C1227.46 100.936 1228.35 101.832 1228.35 102.936C1228.35 104.041 1227.46 104.936 1226.35 104.936H1211.81C1210.71 104.936 1209.81 104.041 1209.81 102.936ZM1209.81 109.936C1209.81 108.832 1210.71 107.936 1211.81 107.936H1220.73C1221.84 107.936 1222.73 108.832 1222.73 109.936C1222.73 111.041 1221.84 111.936 1220.73 111.936H1211.81C1210.71 111.936 1209.81 111.041 1209.81 109.936Z" fill="white"/>
</svg>
