<svg width="1363" height="167" viewBox="0 0 1363 167" fill="none" xmlns="http://www.w3.org/2000/svg">
<rect width="1363" height="167" rx="15" fill="#F0F0F0"/>
<path d="M0 15C0 6.71573 6.71573 0 15 0H37V167H15C6.71573 167 0 160.284 0 152V15Z" fill="#424241"/>
<path d="M100.906 50.9219L93.3945 48.2383V45.0859L103.602 49.375V51.6367L100.906 50.9219ZM93.3945 53.1719L100.918 50.4297L103.602 49.7852V52.0352L93.3945 56.3242V53.1719ZM125.914 49.0703V49.8789C125.914 51.1758 125.738 52.3398 125.387 53.3711C125.035 54.4023 124.539 55.2812 123.898 56.0078C123.258 56.7266 122.492 57.2773 121.602 57.6602C120.719 58.043 119.738 58.2344 118.66 58.2344C117.59 58.2344 116.609 58.043 115.719 57.6602C114.836 57.2773 114.07 56.7266 113.422 56.0078C112.773 55.2812 112.27 54.4023 111.91 53.3711C111.559 52.3398 111.383 51.1758 111.383 49.8789V49.0703C111.383 47.7656 111.559 46.6016 111.91 45.5781C112.262 44.5469 112.758 43.668 113.398 42.9414C114.047 42.2148 114.812 41.6602 115.695 41.2773C116.586 40.8945 117.566 40.7031 118.637 40.7031C119.715 40.7031 120.695 40.8945 121.578 41.2773C122.469 41.6602 123.234 42.2148 123.875 42.9414C124.523 43.668 125.023 44.5469 125.375 45.5781C125.734 46.6016 125.914 47.7656 125.914 49.0703ZM122.363 49.8789V49.0469C122.363 48.1406 122.281 47.3438 122.117 46.6562C121.953 45.9688 121.711 45.3906 121.391 44.9219C121.07 44.4531 120.68 44.1016 120.219 43.8672C119.758 43.625 119.23 43.5039 118.637 43.5039C118.043 43.5039 117.516 43.625 117.055 43.8672C116.602 44.1016 116.215 44.4531 115.895 44.9219C115.582 45.3906 115.344 45.9688 115.18 46.6562C115.016 47.3438 114.934 48.1406 114.934 49.0469V49.8789C114.934 50.7773 115.016 51.5742 115.18 52.2695C115.344 52.957 115.586 53.5391 115.906 54.0156C116.227 54.4844 116.617 54.8398 117.078 55.082C117.539 55.3242 118.066 55.4453 118.66 55.4453C119.254 55.4453 119.781 55.3242 120.242 55.082C120.703 54.8398 121.09 54.4844 121.402 54.0156C121.715 53.5391 121.953 52.957 122.117 52.2695C122.281 51.5742 122.363 50.7773 122.363 49.8789ZM131.539 48.0273V58H128.164V45.3203H131.328L131.539 48.0273ZM131.047 51.2148H130.133C130.133 50.2773 130.254 49.4336 130.496 48.6836C130.738 47.9258 131.078 47.2812 131.516 46.75C131.953 46.2109 132.473 45.8008 133.074 45.5195C133.684 45.2305 134.363 45.0859 135.113 45.0859C135.707 45.0859 136.25 45.1719 136.742 45.3438C137.234 45.5156 137.656 45.7891 138.008 46.1641C138.367 46.5391 138.641 47.0352 138.828 47.6523C139.023 48.2695 139.121 49.0234 139.121 49.9141V58H135.723V49.9023C135.723 49.3398 135.645 48.9023 135.488 48.5898C135.332 48.2773 135.102 48.0586 134.797 47.9336C134.5 47.8008 134.133 47.7344 133.695 47.7344C133.242 47.7344 132.848 47.8242 132.512 48.0039C132.184 48.1836 131.91 48.4336 131.691 48.7539C131.48 49.0664 131.32 49.4336 131.211 49.8555C131.102 50.2773 131.047 50.7305 131.047 51.2148ZM150.219 40.9375L153.781 48.7188L157.344 40.9375H161.176L155.562 51.7891V58H152V51.7891L146.375 40.9375H150.219ZM161.211 51.7891V51.543C161.211 50.6133 161.344 49.7578 161.609 48.9766C161.875 48.1875 162.262 47.5039 162.77 46.9258C163.277 46.3477 163.902 45.8984 164.645 45.5781C165.387 45.25 166.238 45.0859 167.199 45.0859C168.16 45.0859 169.016 45.25 169.766 45.5781C170.516 45.8984 171.145 46.3477 171.652 46.9258C172.168 47.5039 172.559 48.1875 172.824 48.9766C173.09 49.7578 173.223 50.6133 173.223 51.543V51.7891C173.223 52.7109 173.09 53.5664 172.824 54.3555C172.559 55.1367 172.168 55.8203 171.652 56.4062C171.145 56.9844 170.52 57.4336 169.777 57.7539C169.035 58.0742 168.184 58.2344 167.223 58.2344C166.262 58.2344 165.406 58.0742 164.656 57.7539C163.914 57.4336 163.285 56.9844 162.77 56.4062C162.262 55.8203 161.875 55.1367 161.609 54.3555C161.344 53.5664 161.211 52.7109 161.211 51.7891ZM164.586 51.543V51.7891C164.586 52.3203 164.633 52.8164 164.727 53.2773C164.82 53.7383 164.969 54.1445 165.172 54.4961C165.383 54.8398 165.656 55.1094 165.992 55.3047C166.328 55.5 166.738 55.5977 167.223 55.5977C167.691 55.5977 168.094 55.5 168.43 55.3047C168.766 55.1094 169.035 54.8398 169.238 54.4961C169.441 54.1445 169.59 53.7383 169.684 53.2773C169.785 52.8164 169.836 52.3203 169.836 51.7891V51.543C169.836 51.0273 169.785 50.543 169.684 50.0898C169.59 49.6289 169.438 49.2227 169.227 48.8711C169.023 48.5117 168.754 48.2305 168.418 48.0273C168.082 47.8242 167.676 47.7227 167.199 47.7227C166.723 47.7227 166.316 47.8242 165.98 48.0273C165.652 48.2305 165.383 48.5117 165.172 48.8711C164.969 49.2227 164.82 49.6289 164.727 50.0898C164.633 50.543 164.586 51.0273 164.586 51.543ZM182.797 54.9648V45.3203H186.172V58H182.996L182.797 54.9648ZM183.172 52.3633L184.168 52.3398C184.168 53.1836 184.07 53.9688 183.875 54.6953C183.68 55.4141 183.387 56.0391 182.996 56.5703C182.605 57.0938 182.113 57.5039 181.52 57.8008C180.926 58.0898 180.227 58.2344 179.422 58.2344C178.805 58.2344 178.234 58.1484 177.711 57.9766C177.195 57.7969 176.75 57.5195 176.375 57.1445C176.008 56.7617 175.719 56.2734 175.508 55.6797C175.305 55.0781 175.203 54.3555 175.203 53.5117V45.3203H178.578V53.5352C178.578 53.9102 178.621 54.2266 178.707 54.4844C178.801 54.7422 178.93 54.9531 179.094 55.1172C179.258 55.2812 179.449 55.3984 179.668 55.4688C179.895 55.5391 180.145 55.5742 180.418 55.5742C181.113 55.5742 181.66 55.4336 182.059 55.1523C182.465 54.8711 182.75 54.4883 182.914 54.0039C183.086 53.5117 183.172 52.9648 183.172 52.3633ZM192.125 48.0859V58H188.75V45.3203H191.926L192.125 48.0859ZM195.945 45.2383L195.887 48.3672C195.723 48.3438 195.523 48.3242 195.289 48.3086C195.062 48.2852 194.855 48.2734 194.668 48.2734C194.191 48.2734 193.777 48.3359 193.426 48.4609C193.082 48.5781 192.793 48.7539 192.559 48.9883C192.332 49.2227 192.16 49.5078 192.043 49.8438C191.934 50.1797 191.871 50.5625 191.855 50.9922L191.176 50.7812C191.176 49.9609 191.258 49.207 191.422 48.5195C191.586 47.8242 191.824 47.2188 192.137 46.7031C192.457 46.1875 192.848 45.7891 193.309 45.5078C193.77 45.2266 194.297 45.0859 194.891 45.0859C195.078 45.0859 195.27 45.1016 195.465 45.1328C195.66 45.1562 195.82 45.1914 195.945 45.2383ZM207.84 55.293L211.238 40.9375H213.137L213.57 43.3281L209.949 58H207.91L207.84 55.293ZM206.094 40.9375L208.906 55.293L208.672 58H206.398L202.613 40.9375H206.094ZM216.559 55.2344L219.336 40.9375H222.816L219.043 58H216.77L216.559 55.2344ZM214.203 40.9375L217.625 55.3516L217.531 58H215.492L211.848 43.3164L212.316 40.9375H214.203ZM230.961 55.1406V49.4922C230.961 49.0859 230.895 48.7383 230.762 48.4492C230.629 48.1523 230.422 47.9219 230.141 47.7578C229.867 47.5938 229.512 47.5117 229.074 47.5117C228.699 47.5117 228.375 47.5781 228.102 47.7109C227.828 47.8359 227.617 48.0195 227.469 48.2617C227.32 48.4961 227.246 48.7734 227.246 49.0938H223.871C223.871 48.5547 223.996 48.043 224.246 47.5586C224.496 47.0742 224.859 46.6484 225.336 46.2812C225.812 45.9062 226.379 45.6133 227.035 45.4023C227.699 45.1914 228.441 45.0859 229.262 45.0859C230.246 45.0859 231.121 45.25 231.887 45.5781C232.652 45.9062 233.254 46.3984 233.691 47.0547C234.137 47.7109 234.359 48.5312 234.359 49.5156V54.9414C234.359 55.6367 234.402 56.207 234.488 56.6523C234.574 57.0898 234.699 57.4727 234.863 57.8008V58H231.453C231.289 57.6562 231.164 57.2266 231.078 56.7109C231 56.1875 230.961 55.6641 230.961 55.1406ZM231.406 50.2773L231.43 52.1875H229.543C229.098 52.1875 228.711 52.2383 228.383 52.3398C228.055 52.4414 227.785 52.5859 227.574 52.7734C227.363 52.9531 227.207 53.1641 227.105 53.4062C227.012 53.6484 226.965 53.9141 226.965 54.2031C226.965 54.4922 227.031 54.7539 227.164 54.9883C227.297 55.2148 227.488 55.3945 227.738 55.5273C227.988 55.6523 228.281 55.7148 228.617 55.7148C229.125 55.7148 229.566 55.6133 229.941 55.4102C230.316 55.207 230.605 54.957 230.809 54.6602C231.02 54.3633 231.129 54.082 231.137 53.8164L232.027 55.2461C231.902 55.5664 231.73 55.8984 231.512 56.2422C231.301 56.5859 231.031 56.9102 230.703 57.2148C230.375 57.5117 229.98 57.7578 229.52 57.9531C229.059 58.1406 228.512 58.2344 227.879 58.2344C227.074 58.2344 226.344 58.0742 225.688 57.7539C225.039 57.4258 224.523 56.9766 224.141 56.4062C223.766 55.8281 223.578 55.1719 223.578 54.4375C223.578 53.7734 223.703 53.1836 223.953 52.668C224.203 52.1523 224.57 51.7188 225.055 51.3672C225.547 51.0078 226.16 50.7383 226.895 50.5586C227.629 50.3711 228.48 50.2773 229.449 50.2773H231.406ZM240.535 56.5703L243.898 45.3203H247.52L242.422 59.9102C242.312 60.2305 242.164 60.5742 241.977 60.9414C241.797 61.3086 241.551 61.6562 241.238 61.9844C240.934 62.3203 240.547 62.5938 240.078 62.8047C239.617 63.0156 239.051 63.1211 238.379 63.1211C238.059 63.1211 237.797 63.1016 237.594 63.0625C237.391 63.0234 237.148 62.9688 236.867 62.8984V60.4258C236.953 60.4258 237.043 60.4258 237.137 60.4258C237.23 60.4336 237.32 60.4375 237.406 60.4375C237.852 60.4375 238.215 60.3867 238.496 60.2852C238.777 60.1836 239.004 60.0273 239.176 59.8164C239.348 59.6133 239.484 59.3477 239.586 59.0195L240.535 56.5703ZM239.129 45.3203L241.883 54.5078L242.363 58.082L240.066 58.3281L235.508 45.3203H239.129Z" fill="#888888"/>
<path d="M115.994 98.708V104.641H99.5806V98.708H115.994ZM102.151 86.0078V118H94.439V86.0078H102.151ZM121.18 86.0078V118H113.489V86.0078H121.18ZM124.805 106.354V105.893C124.805 104.15 125.054 102.546 125.552 101.081C126.05 99.6016 126.783 98.3198 127.75 97.2358C128.716 96.1519 129.91 95.3096 131.331 94.709C132.752 94.0938 134.393 93.7861 136.253 93.7861C138.128 93.7861 139.776 94.0938 141.197 94.709C142.632 95.3096 143.833 96.1519 144.8 97.2358C145.767 98.3198 146.5 99.6016 146.998 101.081C147.496 102.546 147.745 104.15 147.745 105.893V106.354C147.745 108.083 147.496 109.687 146.998 111.167C146.5 112.631 145.767 113.913 144.8 115.012C143.833 116.096 142.64 116.938 141.219 117.539C139.798 118.139 138.157 118.439 136.297 118.439C134.437 118.439 132.789 118.139 131.353 117.539C129.917 116.938 128.716 116.096 127.75 115.012C126.783 113.913 126.05 112.631 125.552 111.167C125.054 109.687 124.805 108.083 124.805 106.354ZM132.21 105.893V106.354C132.21 107.248 132.276 108.083 132.408 108.859C132.54 109.636 132.759 110.317 133.067 110.903C133.375 111.474 133.792 111.921 134.319 112.243C134.847 112.565 135.506 112.727 136.297 112.727C137.073 112.727 137.718 112.565 138.23 112.243C138.758 111.921 139.175 111.474 139.483 110.903C139.791 110.317 140.01 109.636 140.142 108.859C140.274 108.083 140.34 107.248 140.34 106.354V105.893C140.34 105.029 140.274 104.216 140.142 103.454C140.01 102.678 139.791 101.997 139.483 101.411C139.175 100.81 138.758 100.341 138.23 100.004C137.703 99.6675 137.044 99.499 136.253 99.499C135.477 99.499 134.825 99.6675 134.297 100.004C133.785 100.341 133.375 100.81 133.067 101.411C132.759 101.997 132.54 102.678 132.408 103.454C132.276 104.216 132.21 105.029 132.21 105.893ZM158.27 110.925L162.664 94.2256H167.3L165.652 102.597L161.302 118H157.588L158.27 110.925ZM156.534 94.2256L159.258 110.793L159.566 118H155.062L149.437 94.2256H156.534ZM171.211 110.441L173.958 94.2256H181.055L175.474 118H170.97L171.211 110.441ZM167.828 94.2256L172.266 110.881L172.947 118H169.19L164.927 102.641L163.345 94.2256H167.828ZM209.466 86.0078V118H201.753V86.0078H209.466ZM219.09 86.0078V91.9624H192.349V86.0078H219.09ZM216.475 106.354V105.893C216.475 104.15 216.724 102.546 217.222 101.081C217.72 99.6016 218.453 98.3198 219.419 97.2358C220.386 96.1519 221.58 95.3096 223.001 94.709C224.422 94.0938 226.062 93.7861 227.923 93.7861C229.798 93.7861 231.446 94.0938 232.867 94.709C234.302 95.3096 235.503 96.1519 236.47 97.2358C237.437 98.3198 238.169 99.6016 238.667 101.081C239.166 102.546 239.415 104.15 239.415 105.893V106.354C239.415 108.083 239.166 109.687 238.667 111.167C238.169 112.631 237.437 113.913 236.47 115.012C235.503 116.096 234.31 116.938 232.889 117.539C231.468 118.139 229.827 118.439 227.967 118.439C226.106 118.439 224.458 118.139 223.023 117.539C221.587 116.938 220.386 116.096 219.419 115.012C218.453 113.913 217.72 112.631 217.222 111.167C216.724 109.687 216.475 108.083 216.475 106.354ZM223.88 105.893V106.354C223.88 107.248 223.946 108.083 224.078 108.859C224.209 109.636 224.429 110.317 224.737 110.903C225.044 111.474 225.462 111.921 225.989 112.243C226.517 112.565 227.176 112.727 227.967 112.727C228.743 112.727 229.388 112.565 229.9 112.243C230.428 111.921 230.845 111.474 231.153 110.903C231.46 110.317 231.68 109.636 231.812 108.859C231.944 108.083 232.01 107.248 232.01 106.354V105.893C232.01 105.029 231.944 104.216 231.812 103.454C231.68 102.678 231.46 101.997 231.153 101.411C230.845 100.81 230.428 100.341 229.9 100.004C229.373 99.6675 228.714 99.499 227.923 99.499C227.146 99.499 226.495 99.6675 225.967 100.004C225.455 100.341 225.044 100.81 224.737 101.411C224.429 101.997 224.209 102.678 224.078 103.454C223.946 104.216 223.88 105.029 223.88 105.893ZM254.268 86.0078H266.858C269.319 86.0078 271.458 86.374 273.274 87.1064C275.091 87.8389 276.49 88.9229 277.471 90.3584C278.467 91.7939 278.965 93.5664 278.965 95.6758C278.965 97.5068 278.68 99.0376 278.108 100.268C277.537 101.499 276.739 102.517 275.713 103.322C274.703 104.113 273.523 104.765 272.176 105.278L269.649 106.706H259.08L259.036 100.751H266.858C267.84 100.751 268.653 100.576 269.297 100.224C269.942 99.8726 270.425 99.3745 270.748 98.73C271.084 98.0708 271.253 97.2871 271.253 96.3789C271.253 95.4561 271.084 94.665 270.748 94.0059C270.411 93.3467 269.913 92.8413 269.253 92.4897C268.609 92.1382 267.811 91.9624 266.858 91.9624H261.98V118H254.268V86.0078ZM271.78 118L264.705 103.85L272.879 103.806L280.042 117.67V118H271.78ZM297.159 112.221V94.2256H304.585V118H297.642L297.159 112.221ZM297.862 107.387L299.795 107.343C299.795 108.94 299.605 110.419 299.224 111.782C298.843 113.129 298.279 114.301 297.532 115.297C296.8 116.293 295.892 117.07 294.808 117.626C293.738 118.168 292.5 118.439 291.094 118.439C289.922 118.439 288.846 118.278 287.864 117.956C286.897 117.619 286.062 117.099 285.359 116.396C284.656 115.678 284.107 114.763 283.711 113.649C283.331 112.521 283.14 111.174 283.14 109.606V94.2256H290.545V109.65C290.545 110.178 290.611 110.632 290.743 111.013C290.875 111.394 291.065 111.716 291.314 111.979C291.563 112.229 291.871 112.419 292.237 112.551C292.618 112.668 293.05 112.727 293.533 112.727C294.646 112.727 295.518 112.492 296.148 112.023C296.778 111.555 297.217 110.917 297.466 110.112C297.73 109.306 297.862 108.398 297.862 107.387ZM315.945 99.3013V118H308.541V94.2256H315.484L315.945 99.3013ZM315.066 105.3L313.331 105.344C313.331 103.527 313.55 101.909 313.99 100.488C314.429 99.0522 315.052 97.8364 315.857 96.8403C316.663 95.8442 317.623 95.0898 318.736 94.5771C319.864 94.0498 321.116 93.7861 322.493 93.7861C323.592 93.7861 324.595 93.9473 325.503 94.2695C326.426 94.5918 327.217 95.1118 327.876 95.8296C328.55 96.5474 329.063 97.4995 329.415 98.686C329.781 99.8579 329.964 101.308 329.964 103.037V118H322.515V103.015C322.515 102.062 322.383 101.337 322.12 100.839C321.856 100.327 321.475 99.9751 320.977 99.7847C320.479 99.5942 319.871 99.499 319.153 99.499C318.392 99.499 317.747 99.6455 317.22 99.9385C316.692 100.231 316.268 100.642 315.945 101.169C315.638 101.682 315.411 102.29 315.264 102.993C315.132 103.696 315.066 104.465 315.066 105.3ZM345.85 107.871H339.544C339.544 106.582 339.632 105.446 339.808 104.465C339.998 103.469 340.32 102.575 340.774 101.784C341.229 100.993 341.844 100.261 342.62 99.5869C343.309 99.0156 343.902 98.4663 344.4 97.939C344.898 97.4116 345.279 96.877 345.542 96.335C345.806 95.793 345.938 95.2144 345.938 94.5991C345.938 93.8374 345.828 93.2148 345.608 92.7314C345.403 92.248 345.088 91.8892 344.664 91.6548C344.253 91.4058 343.733 91.2812 343.104 91.2812C342.591 91.2812 342.107 91.4058 341.653 91.6548C341.214 91.9038 340.855 92.292 340.577 92.8193C340.298 93.332 340.145 94.0132 340.115 94.8628H332.667C332.71 92.6802 333.194 90.9077 334.117 89.5454C335.054 88.1685 336.299 87.165 337.852 86.5352C339.419 85.8906 341.17 85.5684 343.104 85.5684C345.242 85.5684 347.081 85.8979 348.619 86.5571C350.157 87.2163 351.336 88.1978 352.156 89.5015C352.977 90.7905 353.387 92.3799 353.387 94.2695C353.387 95.5293 353.145 96.6279 352.662 97.5654C352.193 98.4883 351.556 99.3525 350.75 100.158C349.959 100.949 349.073 101.799 348.091 102.707C347.242 103.454 346.663 104.216 346.355 104.992C346.048 105.754 345.879 106.713 345.85 107.871ZM338.643 114.55C338.643 113.496 339.024 112.617 339.786 111.914C340.547 111.196 341.536 110.837 342.752 110.837C343.968 110.837 344.957 111.196 345.718 111.914C346.48 112.617 346.861 113.496 346.861 114.55C346.861 115.605 346.48 116.491 345.718 117.209C344.957 117.912 343.968 118.264 342.752 118.264C341.536 118.264 340.547 117.912 339.786 117.209C339.024 116.491 338.643 115.605 338.643 114.55Z" fill="#424241"/>
<path d="M1363 15C1363 6.71573 1356.28 0 1348 0H1134V167H1348C1356.28 167 1363 160.284 1363 152V15Z" fill="#FFC700"/>
<path d="M1260.77 81.3079C1263.96 81.3079 1267.09 82.2553 1269.74 84.0303C1272.4 85.8053 1274.47 88.3282 1275.69 91.2799C1276.92 94.2316 1277.24 97.4796 1276.61 100.613C1275.99 103.747 1274.45 106.625 1272.19 108.884C1269.93 111.143 1267.05 112.682 1263.92 113.305C1260.79 113.928 1257.54 113.608 1254.59 112.386C1251.64 111.163 1249.11 109.093 1247.34 106.436C1245.56 103.78 1244.62 100.657 1244.62 97.4617C1244.62 93.1774 1246.32 89.0686 1249.35 86.0392C1252.38 83.0098 1256.48 81.3079 1260.77 81.3079ZM1260.77 75.9233C1256.51 75.9233 1252.35 77.1865 1248.8 79.5532C1245.26 81.9198 1242.5 85.2837 1240.87 89.2193C1239.24 93.1549 1238.81 97.4856 1239.64 101.664C1240.48 105.842 1242.53 109.679 1245.54 112.692C1248.55 115.704 1252.39 117.755 1256.57 118.586C1260.75 119.417 1265.08 118.991 1269.01 117.361C1272.95 115.73 1276.31 112.97 1278.68 109.428C1281.04 105.886 1282.31 101.722 1282.31 97.4617C1282.31 91.7493 1280.04 86.271 1276 82.2317C1271.96 78.1925 1266.48 75.9233 1260.77 75.9233Z" fill="white"/>
<path d="M1274.23 49H1220.38C1218.96 49 1217.59 49.5673 1216.58 50.5771C1215.57 51.5869 1215 52.9565 1215 54.3846V108.231C1215 109.659 1215.57 111.028 1216.58 112.038C1217.59 113.048 1218.96 113.615 1220.38 113.615H1231.15V108.231H1220.38V70.5384H1279.62V54.3846C1279.62 52.9565 1279.05 51.5869 1278.04 50.5771C1277.03 49.5673 1275.66 49 1274.23 49ZM1220.38 65.1538V54.3846H1274.23V65.1538H1220.38Z" fill="white"/>
<path d="M1255.38 89.3849V105.539L1268.85 97.4618L1255.38 89.3849Z" fill="white"/>
</svg>
